<svg width="33" height="34" viewBox="0 0 33 34" fill="none" xmlns="http://www.w3.org/2000/svg">
<g clip-path="url(#clip0_184_28)">
<path d="M5.39749 2.60191C5.49744 2.60164 5.59739 2.60129 5.69734 2.60086C5.96977 2.59993 6.24219 2.6002 6.51462 2.60068C6.8093 2.60098 7.10398 2.60017 7.39867 2.59951C7.97513 2.59841 8.55158 2.59835 9.12804 2.59869C9.59685 2.59895 10.0657 2.59886 10.5345 2.59851C10.6013 2.59846 10.6682 2.59842 10.737 2.59837C10.8728 2.59827 11.0087 2.59817 11.1445 2.59807C12.4169 2.59718 13.6892 2.59753 14.9616 2.59827C16.1241 2.59891 17.2866 2.59808 18.4491 2.59654C19.6445 2.59496 20.8399 2.59435 22.0352 2.59478C22.7056 2.595 23.3761 2.59486 24.0465 2.59373C24.6172 2.59278 25.188 2.59274 25.7587 2.59386C26.0496 2.59441 26.3404 2.59455 26.6312 2.59356C26.8981 2.59266 27.165 2.59298 27.4319 2.59422C27.5278 2.59446 27.6237 2.59428 27.7196 2.5936C28.5746 2.58799 29.4268 2.71651 30.1891 3.12641C30.2529 3.15963 30.2529 3.15963 30.318 3.19352C30.6898 3.39323 31.0139 3.63043 31.325 3.91596C31.3737 3.95875 31.4224 4.00154 31.4726 4.04562C32.0891 4.61873 32.5484 5.37206 32.8075 6.17182C32.8233 6.21952 32.8392 6.26722 32.8556 6.31637C33.0424 6.9536 33.029 7.58009 33.0279 8.23778C33.0284 8.36723 33.0289 8.49668 33.0295 8.62614C33.031 8.97568 33.0312 9.32522 33.031 9.67476C33.031 9.9671 33.0316 10.2594 33.0321 10.5518C33.0334 11.2413 33.0336 11.9309 33.0331 12.6204C33.0327 13.3312 33.0342 14.0419 33.0366 14.7526C33.0385 15.3638 33.0393 15.9751 33.039 16.5864C33.0389 16.951 33.0392 17.3157 33.0408 17.6803C33.0422 18.0229 33.0421 18.3655 33.0408 18.7081C33.0406 18.8336 33.0409 18.9592 33.0418 19.0847C33.043 19.2564 33.0422 19.428 33.0409 19.5997C33.0417 19.6491 33.0425 19.6985 33.0433 19.7494C33.0359 20.2017 32.8415 20.5151 32.5215 20.8268C32.1424 21.0672 31.7566 21.1231 31.32 21.0328C30.9638 20.9227 30.758 20.7217 30.5516 20.416C29.0814 17.4756 30.4227 13.842 30.4227 10.5546C21.2343 10.5546 12.0458 10.5546 2.57895 10.5546C2.58693 13.1229 2.59491 15.6912 2.60312 18.3373C2.60531 19.148 2.60751 19.9586 2.60976 20.7938C2.61234 21.5211 2.61234 21.5211 2.61508 22.2484C2.61629 22.5721 2.61715 22.8958 2.6178 23.2195C2.61864 23.6328 2.62008 24.0461 2.62196 24.4594C2.62254 24.6108 2.62292 24.7622 2.62306 24.9136C2.60596 26.6035 2.60596 26.6035 3.42012 28.0375C3.63258 28.2283 3.86563 28.3577 4.12583 28.4726C4.19448 28.5055 4.26314 28.5383 4.33387 28.5722C4.74178 28.7227 5.17032 28.6929 5.59914 28.6909C5.69692 28.6912 5.79469 28.6916 5.89247 28.692C6.16037 28.6929 6.42826 28.6927 6.69616 28.6922C6.9854 28.6919 7.27463 28.6927 7.56386 28.6933C8.13022 28.6944 8.69657 28.6945 9.26293 28.6942C9.72336 28.6939 10.1838 28.694 10.6442 28.6943C10.7098 28.6944 10.7753 28.6944 10.8429 28.6945C10.976 28.6946 11.1092 28.6947 11.2424 28.6948C12.4911 28.6957 13.7399 28.6953 14.9887 28.6946C16.1306 28.6939 17.2725 28.6948 18.4144 28.6963C19.5874 28.6979 20.7603 28.6985 21.9333 28.6981C22.5917 28.6979 23.25 28.698 23.9084 28.6991C24.4689 28.7001 25.0294 28.7001 25.5899 28.699C25.8757 28.6984 26.1615 28.6983 26.4474 28.6993C26.7094 28.7002 26.9713 28.6999 27.2333 28.6986C27.3277 28.6984 27.4222 28.6986 27.5167 28.6993C28.2852 28.7043 28.9149 28.5929 29.5158 28.0889C30.1344 27.4773 30.2989 26.832 30.3824 25.9944C30.466 25.5197 30.6895 25.2642 31.0672 24.9921C31.3637 24.8159 31.6989 24.8228 32.034 24.8632C32.4335 24.9809 32.7069 25.2299 32.9364 25.5722C33.2566 26.5329 32.924 27.6879 32.5013 28.5572C32.2851 28.9792 32.0332 29.3469 31.7118 29.6972C31.669 29.7459 31.6262 29.7946 31.5821 29.8447C30.7642 30.7246 29.5812 31.2998 28.3835 31.3908C28.1235 31.3979 27.8642 31.3991 27.6042 31.398C27.5042 31.3982 27.4043 31.3986 27.3043 31.399C27.0319 31.4 26.7595 31.3997 26.487 31.3992C26.1924 31.3989 25.8977 31.3997 25.603 31.4004C25.0265 31.4015 24.4501 31.4015 23.8736 31.4012C23.4048 31.4009 22.936 31.401 22.4672 31.4014C22.3669 31.4014 22.3669 31.4014 22.2646 31.4015C22.1288 31.4016 21.993 31.4017 21.8572 31.4018C20.5848 31.4027 19.3124 31.4023 18.04 31.4016C16.8775 31.401 15.715 31.4018 14.5525 31.4033C13.3572 31.4049 12.1618 31.4055 10.9664 31.4051C10.296 31.4049 9.6256 31.405 8.95517 31.4062C8.38443 31.4071 7.81369 31.4071 7.24294 31.406C6.9521 31.4055 6.66128 31.4053 6.37044 31.4063C6.10353 31.4072 5.83665 31.4069 5.56975 31.4057C5.47386 31.4054 5.37796 31.4056 5.28207 31.4063C4.4271 31.4119 3.57482 31.2834 2.8126 30.8735C2.77005 30.8513 2.72751 30.8292 2.68367 30.8064C2.31185 30.6067 1.9878 30.3695 1.67661 30.0839C1.62792 30.0411 1.57924 29.9983 1.52907 29.9543C0.682471 29.1673 0.0860589 28.0069 -0.017269 26.8524C-0.0240549 26.6363 -0.0252706 26.4209 -0.0241588 26.2047C-0.0245059 26.1226 -0.024853 26.0405 -0.0252106 25.9559C-0.026135 25.7302 -0.0258708 25.5046 -0.025393 25.2789C-0.0250864 25.0347 -0.025896 24.7904 -0.0265545 24.5462C-0.0276595 24.0685 -0.0277171 23.5909 -0.0273787 23.1132C-0.0271175 22.7247 -0.0272119 22.3362 -0.0275557 21.9477C-0.0276039 21.8922 -0.0276525 21.8368 -0.0277022 21.7797C-0.027801 21.6671 -0.0278997 21.5545 -0.0279992 21.4418C-0.0288828 20.3871 -0.0285344 19.3323 -0.0277942 18.2776C-0.0271543 17.3143 -0.0279877 16.3509 -0.02953 15.3876C-0.0311045 14.3967 -0.031721 13.4058 -0.0312929 12.4148C-0.0310683 11.8592 -0.0312083 11.3036 -0.0323403 10.748C-0.0332922 10.275 -0.033326 9.80197 -0.0322066 9.32895C-0.0316603 9.08798 -0.0315141 8.84703 -0.0325065 8.60606C-0.0368019 7.48351 -0.0378799 6.45775 0.50034 5.44269C0.522487 5.39986 0.544634 5.35702 0.567453 5.31289C0.766751 4.9393 1.0034 4.61491 1.28989 4.30268C1.33268 4.25399 1.37547 4.2053 1.41955 4.15514C2.46823 3.02699 3.8912 2.59523 5.39749 2.60191ZM3.10666 6.25238C2.72176 6.77839 2.64368 7.26478 2.57895 7.91205C11.7674 7.91205 20.9558 7.91205 30.4227 7.91205C30.2844 6.94358 30.0963 6.29262 29.3285 5.68414C28.7162 5.27553 28.1155 5.24125 27.3948 5.24449C27.2969 5.24422 27.1991 5.24386 27.1013 5.24344C26.8335 5.24251 26.5658 5.24278 26.298 5.24325C26.0088 5.24356 25.7196 5.24275 25.4304 5.24209C24.8643 5.24098 24.2982 5.24093 23.7321 5.24127C23.2718 5.24153 22.8116 5.24143 22.3513 5.24109C22.2858 5.24104 22.2202 5.24099 22.1527 5.24094C22.0196 5.24085 21.8864 5.24075 21.7532 5.24065C20.5049 5.23976 19.2566 5.24011 18.0083 5.24085C16.8668 5.24149 15.7253 5.24066 14.5838 5.23912C13.4111 5.23754 12.2384 5.23692 11.0657 5.23735C10.4076 5.23758 9.74943 5.23743 9.0913 5.23631C8.53104 5.23536 7.97078 5.23532 7.41052 5.23644C7.12481 5.23699 6.83912 5.23713 6.55341 5.23614C6.29156 5.23525 6.02974 5.23556 5.76789 5.2368C5.67347 5.23704 5.57904 5.23685 5.48463 5.23618C4.48715 5.22957 3.75914 5.478 3.10666 6.25238Z" fill="white"/>
<path d="M11.01 12.6292C11.3161 12.8716 11.5752 13.1708 11.6238 13.5668C11.6303 14.0683 11.5922 14.4199 11.2389 14.7902C10.9152 15.0503 10.5919 15.1076 10.1923 15.163C9.5613 15.2506 9.06757 15.4158 8.64137 15.9163C8.25162 16.4804 8.16634 17.0382 8.10748 17.7051C8.04421 18.3759 7.83132 18.9175 7.48826 19.4958C7.39799 19.6437 7.39799 19.6437 7.41273 19.8359C7.49188 19.9964 7.57379 20.1537 7.65846 20.3112C7.96524 20.9051 8.11206 21.4625 8.14991 22.132C8.19215 22.7935 8.41261 23.3667 8.89515 23.832C9.34166 24.1838 9.79938 24.2608 10.345 24.3366C10.8062 24.4061 11.1354 24.5415 11.4358 24.9113C11.6556 25.2722 11.6575 25.6783 11.6022 26.0878C11.4757 26.4787 11.1813 26.7151 10.8479 26.933C10.0941 27.224 9.04247 26.9365 8.33043 26.6329C7.84242 26.4024 7.4259 26.1271 7.02601 25.7656C6.9804 25.7252 6.93479 25.6848 6.88779 25.6432C5.98146 24.7941 5.5047 23.5428 5.44691 22.3173C5.4169 21.7425 5.23402 21.4253 4.82177 21.0333C4.71753 20.942 4.61056 20.8583 4.50026 20.7745C4.22769 20.5262 4.08898 20.2884 4.0365 19.921C4.01963 19.5151 4.06083 19.1899 4.31898 18.8691C4.48894 18.7017 4.66592 18.5423 4.84926 18.3897C5.21062 18.0803 5.40722 17.7549 5.459 17.2772C5.46643 17.17 5.47313 17.0629 5.47914 16.9556C5.59788 15.4907 6.23175 14.3816 7.33619 13.4349C8.19163 12.7869 9.95102 12.0084 11.01 12.6292Z" fill="white"/>
<path d="M24.6711 12.8455C25.1591 13.076 25.5756 13.3513 25.9755 13.7128C26.0211 13.7532 26.0668 13.7936 26.1137 13.8352C27.0201 14.6843 27.4968 15.9356 27.5546 17.1611C27.5872 17.7732 27.7974 18.0814 28.2342 18.4995C28.3649 18.619 28.3649 18.619 28.5375 18.7402C28.7928 18.9671 28.9166 19.2196 28.9653 19.5577C28.9836 20.0134 28.8936 20.378 28.5799 20.7217C28.465 20.8287 28.3476 20.9313 28.2274 21.0323C27.8289 21.3674 27.6033 21.6523 27.5511 22.1904C27.5439 22.2971 27.537 22.4039 27.5305 22.5107C27.4108 23.9589 26.7587 25.1084 25.6653 26.0435C24.7021 26.7732 23.5058 27.1361 22.3017 26.9902C21.9109 26.8525 21.6696 26.5807 21.4588 26.2301C21.3224 25.9036 21.3531 25.5013 21.4369 25.1628C21.5947 24.7895 21.8661 24.5635 22.2372 24.412C22.4266 24.3697 22.6172 24.342 22.8093 24.3153C23.4402 24.2277 23.934 24.0626 24.3602 23.5621C24.7499 22.9979 24.8352 22.4402 24.8941 21.7733C24.9573 21.1025 25.1702 20.5609 25.5133 19.9826C25.6036 19.8347 25.6036 19.8347 25.5888 19.6425C25.5097 19.4819 25.4278 19.3247 25.3431 19.1672C25.0363 18.5732 24.8895 18.0159 24.8516 17.3464C24.8094 16.6849 24.5889 16.1117 24.1064 15.6464C23.6599 15.2946 23.2022 15.2175 22.6566 15.1418C22.1954 15.0723 21.8661 14.9369 21.5658 14.5671C21.3469 14.2077 21.3358 13.7983 21.3994 13.3905C21.5516 13.0062 21.8084 12.7693 22.1514 12.5476C22.902 12.2509 23.9608 12.5426 24.6711 12.8455Z" fill="white"/>
<path d="M12.0223 20.7841C12.0768 20.7836 12.1314 20.7832 12.1876 20.7828C12.3675 20.7815 12.5474 20.7813 12.7273 20.7811C12.8528 20.7807 12.9783 20.7803 13.1037 20.7798C13.3667 20.7791 13.6296 20.7788 13.8925 20.7789C14.2287 20.7789 14.5648 20.7772 14.9009 20.7749C15.1601 20.7735 15.4192 20.7732 15.6784 20.7733C15.8023 20.7732 15.9262 20.7726 16.05 20.7716C16.2237 20.7703 16.3973 20.7707 16.571 20.7715C16.6471 20.7704 16.6471 20.7704 16.7246 20.7693C17.1427 20.774 17.478 20.8994 17.7934 21.1777C17.8228 21.2148 17.8521 21.252 17.8823 21.2902C17.9128 21.3275 17.9433 21.3648 17.9747 21.4033C18.1947 21.7313 18.1515 22.1668 18.1119 22.543C17.9859 22.8766 17.7683 23.1256 17.4674 23.3165C17.1566 23.4442 16.8699 23.4648 16.5382 23.4651C16.4851 23.4657 16.432 23.4662 16.3773 23.4667C16.2025 23.4683 16.0278 23.4689 15.853 23.4693C15.7309 23.4699 15.6087 23.4705 15.4865 23.4711C15.2306 23.4721 14.9746 23.4726 14.7187 23.4728C14.392 23.4731 14.0654 23.4756 13.7387 23.4785C13.4864 23.4804 13.234 23.4809 12.9816 23.481C12.8613 23.4812 12.7409 23.482 12.6206 23.4834C11.3632 23.4964 11.3632 23.4964 10.8932 23.1231C10.5574 22.7647 10.4829 22.4303 10.4886 21.9536C10.5244 21.5849 10.6784 21.3133 10.9536 21.0687C11.3084 20.8225 11.5961 20.7836 12.0223 20.7841Z" fill="white"/>
<path d="M17.4567 16.0135C17.4991 16.013 17.5415 16.0124 17.5852 16.0119C17.7244 16.0103 17.8635 16.0098 18.0027 16.0093C18.1003 16.0087 18.1979 16.0082 18.2956 16.0076C18.4999 16.0065 18.7043 16.006 18.9086 16.0058C19.169 16.0055 19.4293 16.003 19.6896 16.0001C19.8912 15.9982 20.0928 15.9977 20.2944 15.9976C20.3903 15.9974 20.4862 15.9966 20.5821 15.9952C21.1453 15.9879 21.6374 16.0082 22.1066 16.3555C22.4434 16.7119 22.5176 17.0497 22.5107 17.5252C22.4783 17.868 22.3637 18.1065 22.1104 18.34C21.7669 18.6069 21.5304 18.6838 21.0916 18.6862C21.0257 18.6867 21.0257 18.6867 20.9585 18.6872C20.8131 18.6881 20.6678 18.6886 20.5224 18.6889C20.4212 18.6893 20.32 18.6897 20.2187 18.69C20.0063 18.6907 19.7939 18.6911 19.5815 18.6913C19.3101 18.6917 19.0387 18.6932 18.7673 18.695C18.5581 18.6962 18.3489 18.6966 18.1396 18.6967C18.0396 18.6969 17.9396 18.6974 17.8396 18.6982C17.6992 18.6993 17.5589 18.6992 17.4186 18.6988C17.3388 18.699 17.2591 18.6993 17.177 18.6995C16.7501 18.6549 16.4587 18.489 16.1769 18.1602C15.941 17.8148 15.8912 17.547 15.9191 17.1289C15.9967 16.7348 16.1838 16.5132 16.4843 16.2553C16.7931 16.0552 17.0945 16.0168 17.4567 16.0135Z" fill="white"/>
<path d="M12.3222 16.0171C12.3939 16.0158 12.4656 16.0145 12.5394 16.0131C13.0205 16.0108 13.421 16.0283 13.8082 16.3447C14.1086 16.709 14.283 17.0115 14.2679 17.5018C14.2012 17.8958 14.0109 18.2491 13.6878 18.4865C13.2661 18.7286 12.8705 18.6924 12.3948 18.696C12.2734 18.6988 12.2734 18.6988 12.1497 18.7016C11.6983 18.7047 11.3262 18.6981 10.9566 18.418C10.824 18.2868 10.824 18.2868 10.7351 18.1562C10.7046 18.1129 10.6741 18.0696 10.6427 18.025C10.4368 17.678 10.4459 17.2359 10.5427 16.8525C10.7024 16.4766 10.9906 16.2854 11.3434 16.0977C11.6612 15.9917 11.9894 16.0186 12.3222 16.0171Z" fill="white"/>
<path d="M21.8055 20.8995C22.1401 21.0916 22.3735 21.407 22.4944 21.7697C22.5333 22.1647 22.5323 22.5283 22.3317 22.879C22.0895 23.1725 21.7196 23.4087 21.34 23.4631C20.913 23.4832 20.5885 23.3681 20.2385 23.1232C19.9002 22.7694 19.8275 22.4273 19.8344 21.9534C19.8668 21.6107 19.9813 21.3722 20.2347 21.1387C20.698 20.7787 21.2465 20.6545 21.8055 20.8995Z" fill="white"/>
</g>
<defs>
<clipPath id="clip0_184_28">
<rect width="33" height="33" fill="white" transform="translate(0 0.5)"/>
</clipPath>
</defs>
</svg>
