<svg width="36" height="36" viewBox="0 0 36 36" fill="none" xmlns="http://www.w3.org/2000/svg">
<path d="M18.4331 1.95528C18.4999 1.9547 18.5667 1.95413 18.6355 1.95354C18.8571 1.95179 19.0786 1.95063 19.3002 1.94961C19.4136 1.94905 19.4136 1.94905 19.5292 1.94848C19.9288 1.9466 20.3285 1.94524 20.7282 1.94422C21.1417 1.94305 21.5551 1.9399 21.9686 1.93632C22.286 1.93396 22.6034 1.93314 22.9208 1.93275C23.0733 1.93227 23.2257 1.9312 23.3781 1.92952C23.5913 1.9273 23.8043 1.92729 24.0175 1.92781C24.1123 1.92608 24.1123 1.92608 24.209 1.92432C24.636 1.92861 24.636 1.92861 24.8581 2.13318C25.0044 2.39962 25.0252 2.51099 24.961 2.81259C24.8078 3.02902 24.6267 3.2135 24.4402 3.40135C24.2588 3.58647 24.0831 3.77684 23.9064 3.96645C23.6962 4.19193 23.4848 4.41633 23.2735 4.64071C23.6273 5.06036 23.9992 5.45948 24.3772 5.85731C24.4447 5.92876 24.4447 5.92876 24.5135 6.00165C24.5741 6.06543 24.5741 6.06543 24.6359 6.13051C24.953 6.48461 24.953 6.48461 24.9961 6.78085C24.9507 7.10411 24.8657 7.18479 24.6094 7.3829C24.3993 7.4159 24.2302 7.42766 24.0208 7.42281C23.9625 7.42286 23.9042 7.42292 23.844 7.42297C23.6519 7.42272 23.4598 7.41999 23.2677 7.41723C23.1342 7.41658 23.0007 7.41608 22.8672 7.41573C22.5164 7.41439 22.1656 7.41093 21.8147 7.40704C21.3935 7.40281 20.9723 7.4012 20.5511 7.39915C19.9116 7.39574 19.2723 7.389 18.6328 7.3829C18.6328 8.54306 18.6328 9.70321 18.6328 10.8985C19.6089 10.8902 19.6089 10.8902 20.5849 10.8795C20.7078 10.8789 20.8307 10.8784 20.9537 10.8779C21.0484 10.8763 21.0484 10.8763 21.145 10.8747C21.5088 10.8745 21.7644 10.9027 22.0781 11.1095C22.1617 11.2766 22.1572 11.3773 22.1571 11.5639C22.1572 11.6303 22.1574 11.6967 22.1575 11.7651C22.1573 11.8386 22.1571 11.912 22.1569 11.9877C22.157 12.1042 22.157 12.1042 22.1571 12.223C22.1572 12.4849 22.1568 12.7468 22.1564 13.0088C22.1564 13.1958 22.1564 13.3829 22.1565 13.5699C22.1565 13.9735 22.1563 14.3772 22.1559 14.7808C22.1553 15.3644 22.1551 15.9479 22.155 16.5315C22.1549 17.4782 22.1544 18.425 22.1538 19.3717C22.1531 20.2915 22.1526 21.2114 22.1523 22.1312C22.1523 22.2162 22.1523 22.2162 22.1523 22.3029C22.1522 22.5872 22.1521 22.8715 22.152 23.1558C22.1513 25.5153 22.15 27.8749 22.1485 30.2345C22.8677 30.2345 23.587 30.2345 24.3281 30.2345C24.3274 29.9941 24.3274 29.9941 24.3267 29.7488C24.3224 28.2403 24.3193 26.7318 24.3172 25.2233C24.3161 24.4477 24.3146 23.6721 24.3122 22.8966C24.3101 22.2206 24.3088 21.5446 24.3083 20.8687C24.308 20.5107 24.3074 20.1528 24.3058 19.7948C24.3044 19.4579 24.304 19.121 24.3043 18.7841C24.3042 18.6604 24.3038 18.5368 24.303 18.4132C24.3019 18.2443 24.3022 18.0754 24.3028 17.9065C24.3022 17.8577 24.3015 17.8088 24.3009 17.7585C24.3039 17.4375 24.3708 17.2183 24.5391 16.9454C24.8474 16.7434 25.2259 16.7845 25.5822 16.7855C25.6862 16.7849 25.6862 16.7849 25.7923 16.7844C26.0212 16.7834 26.2501 16.7835 26.479 16.7836C26.6383 16.7834 26.7976 16.783 26.9568 16.7827C27.2906 16.7822 27.6244 16.7822 27.9581 16.7826C28.3857 16.783 28.8132 16.7818 29.2408 16.7802C29.5697 16.7791 29.8986 16.7791 30.2276 16.7793C30.3852 16.7793 30.5428 16.7789 30.7005 16.7782C30.9209 16.7773 31.1414 16.7778 31.3618 16.7786C31.4268 16.7781 31.4918 16.7775 31.5588 16.777C31.9191 16.7799 32.1737 16.8117 32.4844 17.0157C32.5893 17.2255 32.5641 17.4397 32.5632 17.6697C32.5632 17.75 32.5632 17.75 32.5633 17.8319C32.5635 18.0122 32.5631 18.1925 32.5627 18.3728C32.5627 18.5017 32.5627 18.6306 32.5627 18.7594C32.5627 19.1101 32.5623 19.4608 32.5618 19.8115C32.5614 20.1776 32.5613 20.5438 32.5613 20.91C32.561 21.6037 32.5605 22.2975 32.5598 22.9912C32.559 23.7809 32.5586 24.5706 32.5582 25.3602C32.5575 26.985 32.5563 28.6097 32.5547 30.2345C32.6428 30.2312 32.7309 30.2279 32.8217 30.2246C32.9378 30.2219 33.0538 30.2194 33.1699 30.2169C33.2279 30.2145 33.2859 30.2122 33.3457 30.2097C33.7774 30.2028 33.7774 30.2028 33.9994 30.3665C34.1183 30.5401 34.1371 30.6311 34.138 30.8401C34.1389 30.9039 34.1397 30.9677 34.1407 31.0335C34.1401 31.1019 34.1395 31.1703 34.1389 31.2408C34.1392 31.3115 34.1395 31.3823 34.1397 31.4551C34.1399 31.6045 34.1394 31.754 34.1382 31.9034C34.1367 32.1321 34.1382 32.3607 34.14 32.5894C34.1398 32.7346 34.1395 32.8798 34.1389 33.025C34.1395 33.0934 34.1401 33.1618 34.1407 33.2323C34.1393 33.328 34.1393 33.328 34.138 33.4257C34.1377 33.4817 34.1375 33.5377 34.1373 33.5954C34.0861 33.8173 33.9997 33.8918 33.8203 34.0313C33.6352 34.0589 33.4795 34.0692 33.2946 34.0667C33.2411 34.0671 33.1877 34.0676 33.1327 34.068C32.9526 34.069 32.7726 34.068 32.5925 34.0671C32.4626 34.0674 32.3326 34.0678 32.2026 34.0684C31.8446 34.0696 31.4867 34.069 31.1287 34.0681C30.743 34.0675 30.3572 34.0685 29.9715 34.0692C29.2155 34.0705 28.4595 34.0702 27.7035 34.0694C27.0893 34.0688 26.4751 34.0687 25.8609 34.069C25.7299 34.069 25.7299 34.069 25.5963 34.0691C25.419 34.0692 25.2416 34.0693 25.0643 34.0694C23.4475 34.0702 21.8307 34.0694 20.214 34.0679C18.7374 34.0665 17.2609 34.0667 15.7843 34.068C14.1262 34.0695 12.468 34.0701 10.8099 34.0692C10.6332 34.0691 10.4565 34.0691 10.2798 34.069C10.1928 34.0689 10.1059 34.0689 10.0163 34.0688C9.40259 34.0686 8.78887 34.069 8.17514 34.0697C7.42756 34.0705 6.67999 34.0702 5.93241 34.0687C5.55074 34.068 5.16907 34.0677 4.7874 34.0686C4.43835 34.0695 4.08932 34.069 3.74028 34.0675C3.61366 34.0672 3.48704 34.0674 3.36043 34.0681C3.18895 34.0689 3.01757 34.068 2.8461 34.0667C2.77152 34.0677 2.77152 34.0677 2.69544 34.0687C2.45802 34.0651 2.33893 34.0458 2.14908 33.8982C2.0203 33.7248 2.00354 33.6397 2.00269 33.4257C2.00136 33.33 2.00136 33.33 2 33.2323C2.00057 33.1639 2.00114 33.0955 2.00173 33.025C2.00146 32.9543 2.00119 32.8835 2.00091 32.8107C2.00072 32.6613 2.00124 32.5119 2.00241 32.3624C2.00392 32.1337 2.00243 31.9051 2.00063 31.6764C2.00081 31.5312 2.00117 31.386 2.00173 31.2408C2.00116 31.1724 2.00059 31.104 2 31.0335C2.00089 30.9697 2.00177 30.9058 2.00269 30.8401C2.00291 30.7841 2.00313 30.7281 2.00336 30.6704C2.05596 30.4426 2.12724 30.3671 2.32033 30.2345C2.5267 30.201 2.7272 30.2079 2.93556 30.2169C2.9913 30.2182 3.04705 30.2194 3.10448 30.2207C3.24157 30.224 3.37862 30.2291 3.51564 30.2345C3.51551 30.1812 3.51538 30.1279 3.51525 30.0729C3.51214 28.776 3.50982 27.4792 3.50836 26.1823C3.50763 25.5551 3.50664 24.9279 3.50503 24.3008C3.50363 23.7541 3.50272 23.2075 3.50241 22.6609C3.50223 22.3715 3.5018 22.082 3.50077 21.7926C3.49982 21.5201 3.49952 21.2477 3.49974 20.9752C3.4997 20.8752 3.49942 20.7753 3.49888 20.6753C3.49818 20.5387 3.49843 20.4021 3.49873 20.2656C3.4986 20.1891 3.49847 20.1127 3.49834 20.034C3.52259 19.7456 3.57888 19.5459 3.79674 19.3509C4.10324 19.2272 4.38578 19.2363 4.71343 19.2384C4.78424 19.2381 4.85504 19.2377 4.928 19.2373C5.16181 19.2364 5.3956 19.237 5.62941 19.2377C5.79201 19.2376 5.95462 19.2374 6.11722 19.2371C6.45791 19.2368 6.79859 19.2372 7.13928 19.2382C7.57598 19.2394 8.01267 19.2387 8.44937 19.2375C8.78511 19.2367 9.12084 19.2369 9.45658 19.2375C9.61761 19.2376 9.77863 19.2375 9.93966 19.237C10.1647 19.2364 10.3897 19.2372 10.6147 19.2384C10.6813 19.238 10.7479 19.2376 10.8164 19.2371C11.4196 19.243 11.4196 19.243 11.6719 19.4767C11.7927 19.773 11.83 20.0231 11.8294 20.3417C11.8297 20.473 11.8297 20.473 11.83 20.6069C11.8295 20.703 11.829 20.7991 11.8285 20.8952C11.8284 20.9971 11.8285 21.099 11.8285 21.2009C11.8286 21.4767 11.8278 21.7526 11.8268 22.0284C11.8259 22.317 11.8258 22.6055 11.8256 22.8941C11.8252 23.4402 11.8241 23.9863 11.8226 24.5324C11.8211 25.1542 11.8203 25.776 11.8196 26.3979C11.8181 27.6767 11.8155 28.9556 11.8125 30.2345C12.5086 30.2345 13.2047 30.2345 13.9219 30.2345C13.9214 30.0002 13.921 29.7659 13.9205 29.5246C13.9163 27.3768 13.9131 25.229 13.9111 23.0811C13.9109 22.7997 13.9106 22.5182 13.9103 22.2368C13.9102 22.1807 13.9102 22.1247 13.9101 22.067C13.9092 21.1595 13.9076 20.252 13.9056 19.3445C13.9036 18.4135 13.9025 17.4824 13.902 16.5514C13.9018 15.9768 13.9008 15.4022 13.8991 14.8277C13.8979 14.3872 13.8977 13.9467 13.898 13.5063C13.898 13.3255 13.8976 13.1447 13.8967 12.9639C13.8957 12.7174 13.8959 12.471 13.8965 12.2245C13.8959 12.1527 13.8953 12.0808 13.8947 12.0068C13.897 11.6321 13.9178 11.3611 14.1328 11.0392C14.4398 10.8383 14.8105 10.8807 15.1647 10.8848C15.2623 10.8851 15.2623 10.8851 15.3618 10.8854C15.5689 10.8862 15.7759 10.8879 15.9829 10.8897C16.1236 10.8904 16.2643 10.8911 16.4049 10.8917C16.7491 10.8932 17.0933 10.8956 17.4375 10.8985C17.4373 10.8559 17.4371 10.8132 17.4369 10.7692C17.4323 9.72988 17.4288 8.69054 17.4266 7.65119C17.4255 7.14856 17.424 6.64594 17.4216 6.14332C17.4195 5.70511 17.4181 5.26691 17.4177 4.8287C17.4174 4.59677 17.4166 4.36487 17.4152 4.13295C17.4137 3.87372 17.4135 3.61453 17.4136 3.3553C17.4128 3.27883 17.4121 3.20236 17.4113 3.12357C17.413 2.70848 17.4421 2.40337 17.6485 2.03915C17.8898 1.91845 18.1674 1.95653 18.4331 1.95528ZM3.23439 31.4298C3.23439 31.8938 3.23439 32.3579 3.23439 32.836C13.0261 32.836 22.8178 32.836 32.9063 32.836C32.9063 32.372 32.9063 31.9079 32.9063 31.4298C23.1145 31.4298 13.3228 31.4298 3.23439 31.4298Z" fill="white"/>
<path d="M9.36273 9.47487C9.81743 9.89716 10.1704 10.455 10.2114 11.0855C10.2336 11.9672 10.0621 12.555 9.56186 13.2891C9.61289 13.3072 9.66392 13.3253 9.71649 13.344C10.6679 13.758 11.2366 14.6843 11.6009 15.6094C11.7933 16.1015 11.8268 16.709 11.7415 17.2266C11.5914 17.3991 11.4683 17.4944 11.2396 17.5336C11.0497 17.5445 10.8617 17.5458 10.6715 17.5442C10.5632 17.5449 10.5632 17.5449 10.4527 17.5457C10.2144 17.5469 9.97603 17.5461 9.73764 17.5452C9.57188 17.5453 9.40613 17.5456 9.24037 17.546C8.89306 17.5464 8.54577 17.5458 8.19846 17.5445C7.75323 17.5429 7.30805 17.5438 6.86282 17.5455C6.52057 17.5465 6.17832 17.5462 5.83607 17.5454C5.6719 17.5453 5.50774 17.5455 5.34357 17.5461C5.11414 17.5469 4.88479 17.5458 4.65537 17.5442C4.55355 17.545 4.55355 17.545 4.44968 17.5459C4.14862 17.5421 3.98138 17.535 3.71991 17.375C3.50202 17.1347 3.51102 16.9558 3.52652 16.6396C3.68316 15.3772 4.19855 14.3675 5.20248 13.5703C5.57267 13.2891 5.57267 13.2891 5.76498 13.2891C5.7053 13.1874 5.7053 13.1874 5.64441 13.0836C5.5923 12.9939 5.54021 12.9042 5.48813 12.8144C5.46189 12.7698 5.43565 12.7253 5.40862 12.6793C5.05249 12.0633 5.0257 11.3045 5.18024 10.6131C5.47072 9.84044 5.98502 9.35479 6.72739 9.01317C7.65475 8.68072 8.60355 8.86069 9.36273 9.47487ZM6.53842 10.6172C6.2739 10.9875 6.28155 11.3742 6.32748 11.8125C6.45372 12.2228 6.76202 12.4785 7.10092 12.7266C7.45172 12.8435 7.82497 12.8731 8.17374 12.7331C8.54683 12.5118 8.85939 12.2324 8.99936 11.8125C9.05277 11.3402 9.03193 10.9831 8.74777 10.5927C8.44345 10.2391 8.13079 10.082 7.66782 10.0327C7.2051 10.0799 6.86623 10.2968 6.53842 10.6172Z" fill="white"/>
<path d="M29.9998 6.8896C30.596 7.40112 30.9607 7.90652 31.0309 8.70702C31.039 9.53761 30.8896 10.0996 30.3744 10.7579C30.4211 10.7902 30.4678 10.8224 30.5159 10.8557C30.578 10.8988 30.6401 10.942 30.704 10.9864C30.7652 11.0288 30.8264 11.0712 30.8894 11.1149C31.6975 11.6954 32.322 12.5559 32.5341 13.544C32.6606 14.5981 32.6606 14.5981 32.4568 14.919C32.1696 15.1189 31.8903 15.0861 31.5483 15.0833C31.4747 15.0838 31.401 15.0843 31.3251 15.0848C31.0814 15.0861 30.8378 15.0853 30.5942 15.0843C30.425 15.0845 30.2558 15.0848 30.0866 15.0851C29.732 15.0855 29.3773 15.0849 29.0227 15.0836C28.5678 15.082 28.1129 15.0829 27.658 15.0846C27.3086 15.0856 26.9592 15.0853 26.6099 15.0846C26.4421 15.0844 26.2743 15.0846 26.1066 15.0853C25.8723 15.086 25.638 15.0849 25.4037 15.0833C25.3341 15.0839 25.2646 15.0845 25.1929 15.0851C24.7243 15.0792 24.7243 15.0792 24.4967 14.9165C24.2351 14.5173 24.3423 14.0625 24.4127 13.6174C24.5522 12.9687 24.8449 12.4101 25.2416 11.8829C25.2891 11.818 25.2891 11.818 25.3375 11.7519C25.6232 11.3889 25.9825 11.1491 26.3666 10.8985C26.4362 10.8521 26.5058 10.8057 26.5776 10.7579C26.5437 10.7128 26.5098 10.6678 26.4748 10.6214C26.4082 10.5302 26.4082 10.5302 26.3403 10.4371C26.2962 10.3775 26.2522 10.318 26.2068 10.2566C25.8424 9.65076 25.8526 8.83827 25.9857 8.15797C26.2207 7.48184 26.7833 6.91897 27.4213 6.60945C28.2708 6.26271 29.2571 6.33801 29.9998 6.8896ZM27.54 7.96736C27.2206 8.28672 27.126 8.54042 27.1005 8.98689C27.1134 9.43881 27.2444 9.73386 27.5619 10.0548C27.8991 10.3206 28.2412 10.378 28.6641 10.3585C29.0769 10.3017 29.3359 10.0816 29.601 9.77351C29.8585 9.40062 29.8767 9.01662 29.8119 8.5782C29.6676 8.18268 29.4105 7.92991 29.0459 7.72813C28.4951 7.49003 28.0044 7.61298 27.54 7.96736Z" fill="white"/>
</svg>
