<svg width="800" height="400" viewBox="0 0 800 400" fill="none" xmlns="http://www.w3.org/2000/svg">
<rect width="800" height="400" rx="20" fill="white"/>
<path d="M364.639 183.304L352.687 217H342.415L330.463 183.304H339.199L347.551 208.744L355.951 183.304H364.639ZM371.698 187.432C370.258 187.432 369.074 187.016 368.146 186.184C367.25 185.32 366.802 184.264 366.802 183.016C366.802 181.736 367.25 180.68 368.146 179.848C369.074 178.984 370.258 178.552 371.698 178.552C373.106 178.552 374.258 178.984 375.154 179.848C376.082 180.68 376.546 181.736 376.546 183.016C376.546 184.264 376.082 185.32 375.154 186.184C374.258 187.016 373.106 187.432 371.698 187.432ZM375.778 190.216V217H367.57V190.216H375.778ZM379.594 203.56C379.594 200.808 380.106 198.392 381.13 196.312C382.186 194.232 383.61 192.632 385.402 191.512C387.194 190.392 389.194 189.832 391.402 189.832C393.162 189.832 394.762 190.2 396.202 190.936C397.674 191.672 398.826 192.664 399.658 193.912V181.48H407.866V217H399.658V213.16C398.89 214.44 397.786 215.464 396.346 216.232C394.938 217 393.29 217.384 391.402 217.384C389.194 217.384 387.194 216.824 385.402 215.704C383.61 214.552 382.186 212.936 381.13 210.856C380.106 208.744 379.594 206.312 379.594 203.56ZM399.658 203.608C399.658 201.56 399.082 199.944 397.93 198.76C396.81 197.576 395.434 196.984 393.802 196.984C392.17 196.984 390.778 197.576 389.626 198.76C388.506 199.912 387.946 201.512 387.946 203.56C387.946 205.608 388.506 207.24 389.626 208.456C390.778 209.64 392.17 210.232 393.802 210.232C395.434 210.232 396.81 209.64 397.93 208.456C399.082 207.272 399.658 205.656 399.658 203.608ZM438.552 203.176C438.552 203.944 438.504 204.744 438.408 205.576H419.832C419.96 207.24 420.488 208.52 421.416 209.416C422.376 210.28 423.544 210.712 424.92 210.712C426.968 210.712 428.392 209.848 429.192 208.12H437.928C437.48 209.88 436.664 211.464 435.48 212.872C434.328 214.28 432.872 215.384 431.112 216.184C429.352 216.984 427.384 217.384 425.208 217.384C422.584 217.384 420.248 216.824 418.2 215.704C416.152 214.584 414.552 212.984 413.4 210.904C412.248 208.824 411.672 206.392 411.672 203.608C411.672 200.824 412.232 198.392 413.352 196.312C414.504 194.232 416.104 192.632 418.152 191.512C420.2 190.392 422.552 189.832 425.208 189.832C427.8 189.832 430.104 190.376 432.12 191.464C434.136 192.552 435.704 194.104 436.824 196.12C437.976 198.136 438.552 200.488 438.552 203.176ZM430.152 201.016C430.152 199.608 429.672 198.488 428.712 197.656C427.752 196.824 426.552 196.408 425.112 196.408C423.736 196.408 422.568 196.808 421.608 197.608C420.68 198.408 420.104 199.544 419.88 201.016H430.152ZM454.574 217.384C451.95 217.384 449.582 216.824 447.47 215.704C445.39 214.584 443.742 212.984 442.526 210.904C441.342 208.824 440.75 206.392 440.75 203.608C440.75 200.856 441.358 198.44 442.574 196.36C443.79 194.248 445.454 192.632 447.566 191.512C449.678 190.392 452.046 189.832 454.67 189.832C457.294 189.832 459.662 190.392 461.774 191.512C463.886 192.632 465.55 194.248 466.766 196.36C467.982 198.44 468.59 200.856 468.59 203.608C468.59 206.36 467.966 208.792 466.718 210.904C465.502 212.984 463.822 214.584 461.678 215.704C459.566 216.824 457.198 217.384 454.574 217.384ZM454.574 210.28C456.142 210.28 457.47 209.704 458.558 208.552C459.678 207.4 460.238 205.752 460.238 203.608C460.238 201.464 459.694 199.816 458.606 198.664C457.55 197.512 456.238 196.936 454.67 196.936C453.07 196.936 451.742 197.512 450.686 198.664C449.63 199.784 449.102 201.432 449.102 203.608C449.102 205.752 449.614 207.4 450.638 208.552C451.694 209.704 453.006 210.28 454.574 210.28Z" fill="black"/>
</svg>
