<svg width="33" height="33" viewBox="0 0 33 33" fill="none" xmlns="http://www.w3.org/2000/svg">
<path d="M3.8676 20.3672C5.22885 20.3672 6.5901 20.3672 7.9926 20.3672C8.01387 20.9627 8.03514 21.5583 8.05705 22.1719C8.20865 22.5921 8.20865 22.5921 8.50823 22.8164C8.75625 22.9003 9.0106 22.8951 9.26958 22.897C9.31382 22.8983 9.35806 22.8996 9.40365 22.901C9.73188 22.9035 9.95628 22.8386 10.2485 22.6875C10.7865 22.1315 10.5517 20.9001 10.5707 20.3672C14.4843 20.3672 18.3979 20.3672 22.4301 20.3672C22.4514 20.9627 22.4726 21.5583 22.4946 22.1719C22.6462 22.5921 22.6462 22.5921 22.9457 22.8164C23.1938 22.9003 23.4481 22.8951 23.7071 22.897C23.7734 22.899 23.7734 22.899 23.8411 22.901C24.1694 22.9035 24.3938 22.8386 24.686 22.6875C25.224 22.1315 24.9892 20.9001 25.0082 20.3672C26.3695 20.3672 27.7307 20.3672 29.1332 20.3672C29.1537 21.657 29.1703 22.9467 29.18 24.2366C29.1846 24.8357 29.1909 25.4347 29.2013 26.0337C29.2103 26.5563 29.2161 27.0789 29.2181 27.6016C29.2193 27.8779 29.222 28.1541 29.2286 28.4303C29.2775 30.5469 29.2775 30.5469 28.4692 31.4098C28.4301 31.4484 28.3911 31.487 28.3508 31.5267C28.1815 31.6958 28.0289 31.8781 27.8743 32.0606C27.7469 32.1973 27.6797 32.225 27.4923 32.235C27.3911 32.2353 27.3911 32.2353 27.2879 32.2356C27.2103 32.2359 27.1326 32.2363 27.0526 32.2367C26.9656 32.2368 26.8787 32.2368 26.7917 32.2369C26.6999 32.2372 26.6082 32.2376 26.5164 32.2379C26.2633 32.2388 26.0102 32.2393 25.7571 32.2397C25.5402 32.2401 25.3233 32.2408 25.1065 32.2414C24.3918 32.2436 23.6772 32.245 22.9626 32.2461C22.7766 32.2465 22.5905 32.2468 22.4045 32.2471C21.2499 32.2491 20.0952 32.2508 18.9406 32.2519C18.6731 32.2521 18.4055 32.2524 18.1379 32.2527C18.0382 32.2528 18.0382 32.2528 17.9364 32.2529C16.8589 32.254 15.7814 32.2566 14.7039 32.2599C13.5982 32.2632 12.4926 32.2651 11.3869 32.2656C10.7658 32.2659 10.1448 32.2668 9.5238 32.2694C8.99493 32.2716 8.46609 32.2725 7.93722 32.2717C7.66733 32.2713 7.39748 32.2716 7.1276 32.2735C6.88048 32.2753 6.63343 32.2753 6.38631 32.2738C6.29696 32.2736 6.2076 32.2741 6.11825 32.2752C5.36811 32.2844 5.36811 32.2844 5.07644 32.0398C4.9788 31.9378 4.9788 31.9378 4.89885 31.8398C4.85529 31.7893 4.81173 31.7387 4.76684 31.6866C4.73222 31.6385 4.6976 31.5905 4.66194 31.541C4.62326 31.4879 4.58458 31.4347 4.54474 31.38C4.48672 31.2985 4.48672 31.2985 4.42754 31.2155C4.38762 31.1604 4.34769 31.1054 4.30656 31.0487C3.85145 30.4196 3.85145 30.4196 3.8521 30.0169C3.85192 29.932 3.85175 29.8472 3.85156 29.7597C3.85202 29.6655 3.85249 29.5712 3.85297 29.4769C3.853 29.3778 3.85298 29.2788 3.85291 29.1797C3.85287 28.9104 3.85363 28.6412 3.85453 28.3719C3.85534 28.0906 3.85541 27.8094 3.85557 27.5281C3.85597 26.9953 3.85702 26.4625 3.85832 25.9298C3.85976 25.3233 3.86047 24.7168 3.86111 24.1103C3.86246 22.8626 3.86483 21.6149 3.8676 20.3672Z" fill="white"/>
<path d="M4.71299 16.7489C4.79788 16.7486 4.88276 16.7482 4.97022 16.7479C5.06533 16.7479 5.16043 16.7478 5.25554 16.7478C5.35587 16.7475 5.4562 16.7473 5.55653 16.7469C5.83327 16.7462 6.11001 16.7458 6.38676 16.7455C6.68482 16.7451 6.98289 16.7444 7.28095 16.7437C8.00129 16.7421 8.72163 16.7412 9.44197 16.7403C9.64532 16.7401 9.84867 16.7398 10.052 16.7396C11.314 16.738 12.576 16.7365 13.838 16.7357C14.1304 16.7355 14.4229 16.7353 14.7153 16.7352C14.788 16.7351 14.8607 16.7351 14.9356 16.735C16.1136 16.7342 17.2916 16.7321 18.4696 16.7294C19.6781 16.7266 20.8867 16.7251 22.0953 16.7248C22.7742 16.7246 23.4532 16.7238 24.1321 16.7217C24.7102 16.7199 25.2882 16.7192 25.8663 16.7199C26.1614 16.7202 26.4565 16.72 26.7515 16.7184C27.0216 16.717 27.2916 16.717 27.5616 16.7183C27.6594 16.7184 27.7572 16.7181 27.8549 16.7171C28.677 16.7095 28.677 16.7095 28.931 16.9132C29.168 17.2023 29.1406 17.4388 29.1385 17.7995C29.1384 17.8514 29.1383 17.9032 29.1383 17.9566C29.1379 18.1505 29.137 18.3443 29.1362 18.5382C29.1349 18.9716 29.1335 19.405 29.1322 19.8515C27.7709 19.8515 26.4097 19.8515 25.0072 19.8515C24.9646 19.5112 24.9221 19.1708 24.8783 18.8202C24.6111 18.4763 24.6111 18.4763 24.2337 18.369C24.0601 18.3554 23.8954 18.3481 23.7221 18.3489C23.6785 18.3479 23.6348 18.3468 23.5898 18.3458C23.2576 18.3454 23.0383 18.4064 22.7513 18.5624C22.4607 18.9055 22.4607 18.9055 22.429 19.8515C18.5155 19.8515 14.6019 19.8515 10.5697 19.8515C10.5059 19.341 10.5059 19.341 10.4408 18.8202C10.1736 18.4763 10.1736 18.4763 9.79624 18.369C9.62259 18.3554 9.45794 18.3481 9.28464 18.3489C9.24098 18.3479 9.19732 18.3468 9.15233 18.3458C8.82011 18.3454 8.60084 18.4064 8.31381 18.5624C8.02319 18.9055 8.02319 18.9055 7.99155 19.8515C6.6303 19.8515 5.26905 19.8515 3.86655 19.8515C3.8599 19.4234 3.85325 18.9954 3.84641 18.5544C3.84347 18.4199 3.84054 18.2855 3.83752 18.147C3.83657 18.0395 3.83575 17.9321 3.83508 17.8247C3.83343 17.7696 3.83178 17.7146 3.83008 17.6578C3.82988 17.3807 3.8437 17.201 4.02159 16.9811C4.26634 16.7485 4.38131 16.7496 4.71299 16.7489Z" fill="white"/>
<path d="M26.3613 6.63867C26.5915 6.72447 26.7936 6.827 27.0021 6.95666C27.0904 7.01143 27.0904 7.01143 27.1805 7.06731C27.2412 7.10532 27.3018 7.14333 27.3644 7.1825C27.4253 7.22026 27.4863 7.25802 27.5491 7.29692C27.805 7.45627 28.0559 7.61478 28.2949 7.79883C28.2139 8.05595 28.1198 8.29404 27.9992 8.53503C27.9655 8.60272 27.9318 8.6704 27.8971 8.74014C27.8603 8.81338 27.8235 8.88662 27.7856 8.96208C27.7463 9.04077 27.707 9.11946 27.6677 9.19816C27.5614 9.41106 27.4548 9.62379 27.3481 9.83649C27.2365 10.0592 27.1252 10.282 27.0138 10.5048C26.8269 10.8785 26.6398 11.2522 26.4525 11.6258C26.2358 12.0582 26.0194 12.4906 25.8032 12.9232C25.5952 13.3393 25.387 13.7552 25.1788 14.1712C25.0901 14.3483 25.0015 14.5255 24.9129 14.7026C24.8087 14.9109 24.7044 15.119 24.6 15.3271C24.5433 15.4403 24.4867 15.5536 24.4301 15.6668C24.3966 15.7336 24.3631 15.8004 24.3285 15.8692C24.2993 15.9275 24.27 15.9859 24.2399 16.0461C24.1699 16.1777 24.1699 16.1777 24.1055 16.2422C24.0085 16.2482 23.9113 16.2498 23.8142 16.2495C23.7213 16.2495 23.7213 16.2495 23.6265 16.2495C23.5591 16.2492 23.4918 16.2488 23.4224 16.2485C23.3196 16.2483 23.3196 16.2483 23.2146 16.2482C22.9946 16.2478 22.7746 16.247 22.5546 16.2462C22.4058 16.2459 22.2571 16.2456 22.1083 16.2453C21.7428 16.2446 21.3772 16.2435 21.0117 16.2422C21.3309 15.64 21.6546 15.0408 21.9866 14.4456C22.0284 14.3704 22.0702 14.2953 22.1121 14.2201C22.5017 13.5204 22.893 12.8217 23.2847 12.1232C23.4725 11.7882 23.6601 11.4532 23.8477 11.1182C23.9229 10.9839 23.998 10.8496 24.0732 10.7153C24.1291 10.6156 24.1291 10.6156 24.186 10.5139C24.2988 10.3125 24.4116 10.1111 24.5244 9.90967C24.5617 9.84311 24.599 9.77655 24.6374 9.70797C24.712 9.57463 24.7867 9.4413 24.8614 9.30797C25.0575 8.95786 25.2535 8.60773 25.4494 8.25755C25.5105 8.14844 25.5105 8.14844 25.5728 8.03713C25.6505 7.89824 25.7282 7.75935 25.8059 7.62045C25.9896 7.29233 26.1741 6.96476 26.3613 6.63867Z" fill="white"/>
<path d="M6.12219 7.47662C6.35179 7.46911 6.58135 7.46455 6.81104 7.46051C6.90843 7.45727 6.90843 7.45727 7.00779 7.45396C7.48805 7.44762 7.48805 7.44762 7.72975 7.58212C7.88097 7.75572 8.01092 7.93201 8.13635 8.12518C8.18055 8.1924 8.22476 8.25961 8.2703 8.32887C8.44212 8.6143 8.46193 8.82252 8.44251 9.15241C8.37968 9.35937 8.30843 9.55709 8.22913 9.75791C8.1179 10.0606 8.09832 10.2597 8.18469 10.5704C8.29962 10.8073 8.43441 11.0304 8.57141 11.2552C8.65393 11.3935 8.73642 11.5318 8.8189 11.6701C8.88444 11.7792 8.88444 11.7792 8.9513 11.8904C9.1603 12.2388 9.36446 12.59 9.56932 12.9408C9.92507 13.5495 10.283 14.157 10.642 14.7639C10.7682 14.9773 10.8944 15.1909 11.0206 15.4044C11.0468 15.4485 11.0729 15.4927 11.0998 15.5382C11.1662 15.6506 11.2324 15.7631 11.2986 15.8757C11.3501 15.963 11.3501 15.963 11.4026 16.0522C11.4718 16.1778 11.4718 16.1778 11.4718 16.2422C10.621 16.2422 9.77024 16.2422 8.89368 16.2422C8.68231 15.8594 8.68231 15.8594 8.46668 15.4688C8.06652 14.7467 7.65656 14.0311 7.23804 13.3195C7.09537 13.0768 6.95443 12.8333 6.81506 12.5888C6.78235 12.5316 6.74964 12.4743 6.71593 12.4153C6.65469 12.308 6.5937 12.2005 6.53302 12.0928C6.50612 12.0458 6.47922 11.9988 6.45151 11.9503C6.42822 11.9092 6.40494 11.8681 6.38095 11.8257C6.31917 11.7193 6.31917 11.7193 6.18665 11.6661C6.0602 11.66 5.93357 11.6576 5.80698 11.657C5.69245 11.6551 5.69245 11.6551 5.5756 11.6532C5.41465 11.6511 5.25368 11.6499 5.09271 11.6497C4.43545 11.6362 4.43545 11.6362 4.2173 11.473C4.02153 11.2325 3.88058 10.9896 3.74548 10.7114C3.71956 10.6618 3.69364 10.6122 3.66693 10.5612C3.49931 10.2234 3.42746 9.9804 3.47962 9.60358C3.55766 9.42779 3.65807 9.27634 3.76965 9.12018C3.79732 9.07947 3.82499 9.03876 3.85349 8.99681C3.92117 8.89755 3.99029 8.79929 4.05969 8.70123C4.28717 8.77706 4.31384 8.83005 4.44113 9.02576C4.4754 9.0779 4.50967 9.13004 4.54498 9.18375C4.59788 9.26594 4.59788 9.26594 4.65186 9.34979C4.68787 9.40484 4.72389 9.45988 4.761 9.51659C4.84997 9.65271 4.93844 9.78913 5.02649 9.92584C5.82267 9.89233 5.82267 9.89233 6.47291 9.49683C6.74341 9.13622 6.74341 9.13622 6.83269 8.70778C6.74425 8.43977 6.60281 8.23328 6.44043 8.00433C6.12219 7.5463 6.12219 7.5463 6.12219 7.47662Z" fill="white"/>
<path d="M15.2754 11.9238C15.8645 12.0688 16.4281 12.272 16.9955 12.4838C17.0854 12.5171 17.1753 12.5503 17.2653 12.5836C17.4829 12.6641 17.7005 12.745 17.918 12.8262C17.7361 13.536 17.5113 14.2335 17.2936 14.933C17.1593 15.365 17.0251 15.7971 16.8867 16.2422C15.6956 16.2422 14.5045 16.2422 13.2773 16.2422C13.3757 15.9472 13.4839 15.6759 13.6172 15.3972C13.6379 15.3536 13.6585 15.31 13.6798 15.2651C13.7469 15.1234 13.8142 14.9819 13.8816 14.8403C13.9749 14.6434 14.0681 14.4464 14.1613 14.2494C14.1846 14.2002 14.208 14.1509 14.232 14.1001C14.3815 13.7839 14.5293 13.467 14.6754 13.1492C14.6935 13.1099 14.7115 13.0706 14.7302 13.0302C14.8145 12.8464 14.8986 12.6626 14.9826 12.4787C15.012 12.4145 15.0414 12.3503 15.0717 12.2841C15.0972 12.2282 15.1227 12.1723 15.149 12.1147C15.2109 11.9883 15.2109 11.9883 15.2754 11.9238Z" fill="white"/>
<path d="M20.625 0.773438C20.946 0.905617 20.946 0.905617 21.0762 0.966797C21.1331 0.992485 21.19 1.01817 21.2487 1.04464C21.3984 1.16016 21.3984 1.16016 21.4493 1.34529C21.4628 1.59125 21.4741 1.83633 21.475 2.08264C21.4754 2.12702 21.4758 2.1714 21.4763 2.21712C21.4757 3.0609 21.4757 3.0609 21.2189 3.36566C21.1055 3.46724 20.9907 3.56271 20.8684 3.65341C20.4871 3.94956 20.3468 4.27213 20.1854 4.71893C20.1587 4.78929 20.1319 4.85966 20.1043 4.93216C20.0477 5.08124 19.9917 5.23054 19.9363 5.38005C19.8257 5.67689 19.7109 5.97203 19.5962 6.2673C19.4546 6.63236 19.3148 6.99811 19.1748 7.36377C19.0885 7.5887 19.0022 7.81363 18.9159 8.03854C18.863 8.17661 18.81 8.3147 18.7571 8.4528C18.7334 8.51468 18.7097 8.57656 18.6852 8.64031C18.6646 8.69427 18.6439 8.74824 18.6226 8.80383C18.5608 8.96346 18.4975 9.12243 18.4336 9.28125C18.0561 9.17416 17.695 9.05757 17.3379 8.89453C17.375 8.63488 17.4315 8.40457 17.5257 8.15998C17.5512 8.0934 17.5766 8.02683 17.6028 7.95824C17.6304 7.88694 17.6581 7.81564 17.6866 7.74218C17.7297 7.62979 17.7297 7.62979 17.7736 7.51513C17.8502 7.31561 17.9271 7.11621 18.0042 6.91686C18.0805 6.71903 18.1565 6.52105 18.2326 6.32308C18.2622 6.24589 18.2919 6.16869 18.3225 6.08916C18.3819 5.9346 18.4411 5.77999 18.5002 5.62533C18.635 5.27323 18.7716 4.92231 18.9155 4.57383C19.1642 3.96488 19.3278 3.49798 19.2554 2.83191C19.2352 2.34611 19.3062 2.05346 19.6252 1.67805C19.9378 1.35259 20.2727 1.05511 20.625 0.773438Z" fill="white"/>
<path d="M25.3696 1.58179C25.6887 1.62508 25.8303 1.79708 26.0508 2.02078C26.0934 2.06278 26.1359 2.10478 26.1797 2.14806C26.2692 2.23698 26.3582 2.3264 26.4467 2.41628C26.5825 2.55369 26.7204 2.68871 26.8586 2.82367C26.9454 2.9104 27.0319 2.99726 27.1184 3.08426C27.1598 3.12456 27.2012 3.16485 27.2438 3.20637C27.5201 3.49153 27.5201 3.49153 27.5266 3.74375C27.4526 3.94358 27.3682 4.12107 27.2624 4.3061C27.223 4.37551 27.1837 4.44493 27.1431 4.51645C27.1018 4.58803 27.0605 4.6596 27.0179 4.73335C26.9773 4.80468 26.9367 4.87601 26.8949 4.94949C26.782 5.14766 26.6684 5.3454 26.5546 5.54304C26.502 5.63508 26.4493 5.72714 26.3968 5.81923C26.3638 5.87698 26.3308 5.93472 26.2968 5.99421C25.9492 5.95706 25.6538 5.87167 25.329 5.74471C25.2815 5.72651 25.2339 5.70831 25.1849 5.68956C25.0852 5.65126 24.9855 5.61274 24.886 5.57399C24.7336 5.51474 24.5809 5.45627 24.4282 5.3979C24.331 5.36047 24.2338 5.323 24.1366 5.28548C24.0911 5.26802 24.0456 5.25056 23.9987 5.23257C23.803 5.15618 23.6365 5.08002 23.4609 4.96296C23.4161 4.64345 23.5036 4.4551 23.6638 4.18223C23.6956 4.12734 23.6956 4.12734 23.728 4.07134C23.7966 3.95315 23.8664 3.83569 23.9362 3.71821C23.9836 3.6372 24.0309 3.55615 24.0781 3.47505C24.1941 3.27622 24.3111 3.07794 24.4283 2.87981C24.5201 2.72411 24.611 2.56783 24.7019 2.41153C25.1642 1.61788 25.1642 1.61788 25.3696 1.58179Z" fill="white"/>
<path d="M27.9082 3.93164C28.3813 4.07661 28.8144 4.30231 29.2568 4.5207C29.3598 4.57127 29.463 4.62133 29.5664 4.67088C29.7163 4.74268 29.8653 4.81596 30.0143 4.88963C30.0606 4.91153 30.107 4.93342 30.1548 4.95599C30.3392 5.04896 30.4654 5.11611 30.5624 5.3024C30.5455 5.55925 30.4388 5.76053 30.3219 5.98483C30.2978 6.0327 30.2737 6.08058 30.2489 6.12991C30.1979 6.23083 30.1464 6.33152 30.0946 6.43202C30.0152 6.58602 29.937 6.7406 29.859 6.89535C29.8093 6.99337 29.7595 7.09135 29.7096 7.18929C29.6861 7.23555 29.6626 7.28181 29.6384 7.32947C29.5467 7.50682 29.4682 7.65675 29.3262 7.79883C28.9458 7.79306 28.6778 7.59009 28.3715 7.38794C28.3185 7.35373 28.2656 7.31952 28.211 7.28427C28.1007 7.21293 27.9906 7.14129 27.8807 7.06939C27.7179 6.96293 27.5546 6.85731 27.3911 6.75197C27.1334 6.58588 26.8761 6.41912 26.6191 6.25195C26.9964 5.44795 27.4504 4.69186 27.9082 3.93164Z" fill="white"/>
<path d="M16.5645 9.15234C17.0706 9.17117 17.4862 9.32857 17.9502 9.52295C18.0208 9.5507 18.0914 9.57845 18.1642 9.60704C18.2646 9.64867 18.2646 9.64867 18.3671 9.69113C18.4279 9.71604 18.4887 9.74094 18.5513 9.7666C18.6914 9.86133 18.6914 9.86133 18.7523 10.0021C18.757 10.2442 18.6945 10.4525 18.6212 10.6803C18.6068 10.7271 18.5924 10.7738 18.5775 10.822C18.5316 10.9706 18.4846 11.1189 18.4376 11.2672C18.4062 11.3682 18.3749 11.4692 18.3436 11.5702C18.2669 11.8172 18.1894 12.064 18.1113 12.3105C17.7862 12.421 17.5556 12.3142 17.25 12.198C17.199 12.1793 17.1479 12.1606 17.0953 12.1414C16.9329 12.0817 16.7708 12.0209 16.6088 11.9601C16.4985 11.9193 16.3882 11.8787 16.2778 11.8381C16.0078 11.7386 15.7382 11.6381 15.4688 11.5371C15.5602 11.2446 15.6751 10.9688 15.8054 10.6919C15.8251 10.6497 15.8448 10.6075 15.865 10.564C15.9064 10.4755 15.9478 10.387 15.9894 10.2986C16.0531 10.1629 16.1165 10.0269 16.1799 9.89091C16.2202 9.80475 16.2605 9.71861 16.3008 9.63247C16.3199 9.59172 16.3389 9.55097 16.3584 9.50899C16.4926 9.22424 16.4926 9.22424 16.5645 9.15234Z" fill="white"/>
<path d="M23.3232 18.8117C23.3866 18.8116 23.4501 18.8115 23.5155 18.8114C23.5823 18.8117 23.6491 18.8119 23.7179 18.8122C23.8181 18.8118 23.8181 18.8118 23.9204 18.8114C23.9838 18.8115 24.0473 18.8116 24.1127 18.8117C24.1714 18.8117 24.23 18.8118 24.2905 18.8119C24.4269 18.8202 24.4269 18.8202 24.4914 18.8847C24.4977 18.9931 24.4996 19.1018 24.4997 19.2105C24.4999 19.2799 24.5001 19.3494 24.5003 19.421C24.5002 19.4966 24.5001 19.5722 24.4999 19.6501C24.5 19.7656 24.5 19.7656 24.5001 19.8834C24.5002 20.0466 24.5 20.2098 24.4998 20.373C24.4994 20.6238 24.4998 20.8746 24.5002 21.1254C24.5001 21.2835 24.5001 21.4417 24.4999 21.5998C24.5001 21.6754 24.5002 21.751 24.5003 21.8288C24.5001 21.8983 24.4999 21.9678 24.4997 22.0394C24.4997 22.1009 24.4996 22.1623 24.4996 22.2257C24.4914 22.3652 24.4914 22.3652 24.4269 22.4296C24.3223 22.436 24.2175 22.438 24.1127 22.4382C24.0492 22.4382 23.9858 22.4383 23.9204 22.4384C23.8536 22.4382 23.7868 22.4379 23.7179 22.4377C23.6177 22.438 23.6177 22.438 23.5155 22.4384C23.452 22.4383 23.3886 22.4382 23.3232 22.4382C23.2645 22.4381 23.2058 22.438 23.1454 22.4379C23.009 22.4296 23.009 22.4296 22.9445 22.3652C22.9381 22.2567 22.9363 22.148 22.9362 22.0394C22.936 21.9699 22.9358 21.9004 22.9355 21.8288C22.9357 21.7533 22.9358 21.6777 22.9359 21.5998C22.9359 21.5228 22.9358 21.4458 22.9358 21.3664C22.9357 21.2032 22.9358 21.04 22.9361 20.8768C22.9364 20.626 22.9361 20.3752 22.9357 20.1244C22.9357 19.9663 22.9358 19.8082 22.9359 19.6501C22.9358 19.5745 22.9357 19.4989 22.9355 19.421C22.9358 19.3515 22.936 19.282 22.9362 19.2105C22.9362 19.149 22.9363 19.0875 22.9363 19.0241C22.9518 18.7609 23.0934 18.812 23.3232 18.8117Z" fill="white"/>
<path d="M8.88566 18.8117C8.94914 18.8116 9.01262 18.8115 9.07802 18.8114C9.14482 18.8117 9.21162 18.8119 9.28044 18.8122C9.38064 18.8118 9.38064 18.8118 9.48286 18.8114C9.54634 18.8115 9.60982 18.8116 9.67522 18.8117C9.73387 18.8117 9.79253 18.8118 9.85296 18.8119C9.98942 18.8202 9.98942 18.8202 10.0539 18.8847C10.0602 18.9931 10.0621 19.1018 10.0622 19.2105C10.0624 19.2799 10.0626 19.3494 10.0628 19.421C10.0627 19.4966 10.0626 19.5722 10.0624 19.6501C10.0625 19.7656 10.0625 19.7656 10.0626 19.8834C10.0627 20.0466 10.0625 20.2098 10.0623 20.373C10.0619 20.6238 10.0623 20.8746 10.0627 21.1254C10.0626 21.2835 10.0626 21.4417 10.0624 21.5998C10.0626 21.6754 10.0627 21.751 10.0628 21.8288C10.0626 21.8983 10.0624 21.9678 10.0622 22.0394C10.0622 22.1009 10.0621 22.1623 10.0621 22.2257C10.0539 22.3652 10.0539 22.3652 9.98942 22.4296C9.88484 22.436 9.77999 22.438 9.67522 22.4382C9.61174 22.4382 9.54826 22.4383 9.48286 22.4384C9.41606 22.4382 9.34926 22.4379 9.28044 22.4377C9.18024 22.438 9.18024 22.438 9.07802 22.4384C9.01454 22.4383 8.95106 22.4382 8.88566 22.4382C8.82701 22.4381 8.76835 22.438 8.70791 22.4379C8.57146 22.4296 8.57146 22.4296 8.507 22.3652C8.50064 22.2567 8.49875 22.148 8.49866 22.0394C8.49846 21.9699 8.49826 21.9004 8.49805 21.8288C8.49818 21.7533 8.49831 21.6777 8.49844 21.5998C8.49838 21.5228 8.49832 21.4458 8.49826 21.3664C8.49821 21.2032 8.49833 21.04 8.4986 20.8768C8.49894 20.626 8.4986 20.3752 8.49819 20.1244C8.49823 19.9663 8.49832 19.8082 8.49844 19.6501C8.49831 19.5745 8.49818 19.4989 8.49805 19.421C8.49825 19.3515 8.49845 19.282 8.49866 19.2105C8.49871 19.149 8.49877 19.0875 8.49882 19.0241C8.51427 18.7609 8.65591 18.812 8.88566 18.8117Z" fill="white"/>
<path d="M30.7441 6.05859C31.3176 6.21718 31.7382 6.64845 32.0372 7.15304C32.2343 7.57748 32.2424 7.94206 32.2346 8.40308C32.234 8.46896 32.2335 8.53485 32.2329 8.60273C32.2313 8.76447 32.2292 8.92617 32.2266 9.08789C31.8396 8.84165 31.6086 8.65239 31.4152 8.23189C31.1506 7.66062 30.859 7.38512 30.293 7.08984C30.3315 6.82282 30.4223 6.62695 30.5548 6.39294C30.6078 6.2986 30.6078 6.2986 30.6618 6.20235C30.689 6.15491 30.7161 6.10747 30.7441 6.05859Z" fill="white"/>
</svg>
