<svg width="20" height="20" viewBox="0 0 20 20" fill="none" xmlns="http://www.w3.org/2000/svg">
<path d="M10.0013 1.66675C8.90695 1.66675 7.82332 1.8823 6.81227 2.30109C5.80123 2.71987 4.88257 3.3337 4.10875 4.10752C2.54594 5.67033 1.66797 7.78994 1.66797 10.0001C1.66797 13.6834 4.05964 16.8084 7.36797 17.9167C7.78464 17.9834 7.91797 17.7251 7.91797 17.5001V16.0917C5.60964 16.5917 5.11797 14.9751 5.11797 14.9751C4.73464 14.0084 4.19297 13.7501 4.19297 13.7501C3.43464 13.2334 4.2513 13.2501 4.2513 13.2501C5.08464 13.3084 5.5263 14.1084 5.5263 14.1084C6.2513 15.3751 7.4763 15.0001 7.9513 14.8001C8.0263 14.2584 8.24297 13.8917 8.4763 13.6834C6.6263 13.4751 4.68464 12.7584 4.68464 9.58342C4.68464 8.65841 5.0013 7.91675 5.54297 7.32508C5.45964 7.11675 5.16797 6.25008 5.6263 5.12508C5.6263 5.12508 6.3263 4.90008 7.91797 5.97508C8.5763 5.79175 9.29297 5.70008 10.0013 5.70008C10.7096 5.70008 11.4263 5.79175 12.0846 5.97508C13.6763 4.90008 14.3763 5.12508 14.3763 5.12508C14.8346 6.25008 14.543 7.11675 14.4596 7.32508C15.0013 7.91675 15.318 8.65841 15.318 9.58342C15.318 12.7667 13.368 13.4667 11.5096 13.6751C11.8096 13.9334 12.0846 14.4417 12.0846 15.2167V17.5001C12.0846 17.7251 12.218 17.9917 12.643 17.9167C15.9513 16.8001 18.3346 13.6834 18.3346 10.0001C18.3346 8.90573 18.1191 7.8221 17.7003 6.81105C17.2815 5.80001 16.6677 4.88135 15.8939 4.10752C15.12 3.3337 14.2014 2.71987 13.1903 2.30109C12.1793 1.8823 11.0957 1.66675 10.0013 1.66675Z" fill="#030535"/>
</svg>
