<svg width="33" height="33" viewBox="0 0 33 33" fill="none" xmlns="http://www.w3.org/2000/svg">
<g clip-path="url(#clip0_184_68)">
<path d="M3.11699 -0.0241229C3.20301 -0.0231415 3.20301 -0.0231415 3.29077 -0.0221402C5.06852 0.0190616 6.69571 0.866311 7.9268 2.127C9.10237 3.48714 9.70386 5.05589 9.68899 6.85661C9.68893 6.95137 9.68897 7.04612 9.68907 7.14088C9.68913 7.39477 9.688 7.64865 9.68664 7.90254C9.68542 8.16911 9.68532 8.43568 9.68509 8.70226C9.68449 9.20556 9.68291 9.70885 9.68096 10.2121C9.67879 10.7858 9.67774 11.3594 9.67677 11.933C9.67475 13.1116 9.67121 14.2902 9.66704 15.4688C10.9857 15.4688 12.3045 15.4688 13.6631 15.4688C13.7269 15.2136 13.7907 14.9583 13.8565 14.6954C14.0878 14.1133 14.4038 13.6136 14.8233 13.1485C14.8614 13.1044 14.8996 13.0602 14.9389 13.0148C15.5971 12.3004 16.5138 11.8247 17.4659 11.6661C17.434 8.69896 17.434 8.69896 17.4014 5.67192C17.0824 5.5124 17.0824 5.5124 16.7569 5.34966C16.1875 4.95908 15.7329 4.35127 15.5605 3.67765C15.4282 2.75294 15.4961 1.9616 16.0278 1.17632C16.4788 0.58967 17.0755 0.196386 17.7881 4.70243e-05C18.7529 -0.103931 19.5631 0.034147 20.3401 0.640298C20.7667 1.00669 20.9407 1.34221 21.2041 1.86919C22.5867 1.86919 23.9692 1.86919 25.3936 1.86919C25.4999 1.65649 25.6063 1.4438 25.7159 1.22466C26.1081 0.652887 26.7162 0.200801 27.3924 0.0282453C28.3075 -0.105736 29.129 -0.0262979 29.9053 0.507615C30.2349 0.765026 30.4658 0.99308 30.5458 1.41399C30.5676 1.69215 30.4945 1.88322 30.3565 2.127C30.1522 2.36195 30.0171 2.48479 29.7059 2.53587C29.3398 2.55965 29.1434 2.50057 28.8418 2.28813C28.5443 2.07991 28.3448 2.00578 27.982 2.0351C27.7164 2.08746 27.5796 2.18872 27.4037 2.38884C27.2675 2.72595 27.2675 3.07493 27.4037 3.41203C27.6229 3.66144 27.8117 3.752 28.1409 3.77861C28.4382 3.77244 28.6003 3.68178 28.8418 3.51274C29.136 3.3079 29.3342 3.2269 29.6931 3.25543C29.9978 3.32084 30.2072 3.44597 30.4129 3.68596C30.5517 4.0331 30.6114 4.3601 30.4612 4.71318C30.1556 5.2422 29.551 5.55198 28.9901 5.74166C28.1927 5.93426 27.3246 5.8546 26.6205 5.42695C26.0027 4.9999 25.7385 4.62152 25.3936 3.93169C24.0111 3.93169 22.6286 3.93169 21.2041 3.93169C21.0978 4.14438 20.9915 4.35708 20.8819 4.57622C20.521 5.08234 20.0582 5.47382 19.4639 5.67192C19.4426 7.64999 19.4214 9.62805 19.3995 11.6661C19.6547 11.7299 19.9099 11.7937 20.1729 11.8594C20.755 12.0907 21.2547 12.4067 21.7198 12.8262C21.7639 12.8644 21.808 12.9025 21.8535 12.9418C22.5638 13.5963 23.052 14.5189 23.2022 15.4688C23.2772 15.4674 23.3522 15.4661 23.4294 15.4647C23.7123 15.46 23.9952 15.4571 24.2781 15.4546C24.3997 15.4534 24.5213 15.4516 24.6428 15.4493C26.3379 15.4187 27.4768 15.9812 28.8356 16.9601C29.1045 17.153 29.3761 17.342 29.6475 17.5313C29.754 17.6059 29.8605 17.6805 29.967 17.7551C30.1908 17.9118 30.4149 18.068 30.6392 18.2239C30.6964 18.2638 30.7536 18.3036 30.8126 18.3446C30.9207 18.42 31.029 18.4952 31.1374 18.5702C32.0252 19.1891 32.7539 19.7782 32.9991 20.8829C33.0061 21.0666 33.0099 21.2488 33.0105 21.4326C33.0109 21.4879 33.0113 21.5433 33.0118 21.6003C33.013 21.7833 33.0138 21.9663 33.0144 22.1493C33.0147 22.2118 33.0149 22.2744 33.0152 22.3389C33.0166 22.6699 33.0175 23.0009 33.0181 23.3319C33.0188 23.6736 33.021 24.0153 33.0236 24.357C33.0253 24.62 33.0258 24.883 33.026 25.1459C33.0264 25.2719 33.0271 25.3979 33.0283 25.5238C33.0299 25.7002 33.0298 25.8765 33.0294 26.0528C33.0302 26.1046 33.031 26.1565 33.0319 26.2099C33.0287 26.548 32.9619 26.7359 32.7413 27.0059C32.4424 27.2785 32.0704 27.2208 31.6899 27.2114C31.6237 27.2105 31.5575 27.2096 31.4893 27.2087C31.3265 27.2064 31.1638 27.2033 31.001 27.1993C31.0223 27.2631 31.0436 27.3269 31.0655 27.3926C31.168 28.7283 30.9961 30.0867 30.1213 31.1563C29.9513 31.3514 29.7692 31.5313 29.5831 31.711C29.5375 31.7585 29.492 31.806 29.4451 31.855C28.5979 32.6892 27.3892 33.0208 26.2315 33.0323C24.8588 33.0187 23.65 32.5259 22.6657 31.5647C22.0463 30.9138 21.4291 30.0046 21.3895 29.0724C21.3921 29.0286 21.3948 28.9847 21.3975 28.9395C21.355 28.9395 21.3124 28.9395 21.2686 28.9395C21.2646 29.0179 21.2606 29.0964 21.2565 29.1772C21.1463 30.1509 20.5828 30.9657 19.9151 31.6465C19.8675 31.6965 19.8199 31.7464 19.7708 31.7978C18.8311 32.7186 17.5794 33.043 16.2956 33.0303C14.9699 32.9901 13.8656 32.4618 12.9541 31.5176C12.9066 31.4721 12.8591 31.4266 12.8101 31.3797C11.8911 30.4464 11.6385 29.1703 11.6462 27.9105C11.655 27.4228 11.655 27.4228 11.7295 27.1993C11.6657 27.1993 11.6019 27.1993 11.5362 27.1993C11.5574 27.2631 11.5787 27.3269 11.6006 27.3926C11.7032 28.7283 11.5312 30.0867 10.6565 31.1563C10.4864 31.3514 10.3044 31.5313 10.1182 31.711C10.0727 31.7585 10.0271 31.806 9.98024 31.855C9.1331 32.6892 7.92432 33.0208 6.76665 33.0323C5.48283 33.0196 4.30352 32.6119 3.38991 31.6919C3.33441 31.6344 3.27891 31.5769 3.22172 31.5176C3.1742 31.4721 3.12668 31.4266 3.07771 31.3797C2.15872 30.4464 1.90613 29.1703 1.91378 27.9105C1.92261 27.4228 1.92261 27.4228 1.99712 27.1993C1.95619 27.2006 1.91526 27.202 1.87309 27.2034C1.68617 27.2087 1.49927 27.2121 1.3123 27.2154C1.24791 27.2175 1.18352 27.2197 1.11718 27.2219C0.733772 27.227 0.486986 27.2146 0.192428 26.9415C0.0218375 26.7026 -0.0252079 26.5396 -0.0259185 26.2475C-0.0265568 26.1733 -0.0271952 26.099 -0.027853 26.0225C-0.0275628 25.9416 -0.0272727 25.8607 -0.0269737 25.7774C-0.0273415 25.6908 -0.0277904 25.6043 -0.0283142 25.5178C-0.02947 25.2831 -0.0293946 25.0485 -0.029027 24.8138C-0.0288275 24.6175 -0.0292205 24.4211 -0.0296094 24.2248C-0.0305148 23.7611 -0.0304142 23.2974 -0.0296803 22.8337C-0.0289419 22.3567 -0.0298447 21.8797 -0.0315749 21.4026C-0.0330076 20.9922 -0.0334297 20.5817 -0.0330523 20.1712C-0.032836 19.9264 -0.0329852 19.6817 -0.0340998 19.437C-0.0351039 19.2064 -0.0348343 18.9759 -0.0336292 18.7453C-0.033282 18.6215 -0.0341929 18.4976 -0.0351562 18.3737C-0.0282112 17.5481 0.227834 16.9266 0.772506 16.3067C1.34841 15.765 2.00646 15.4468 2.80174 15.4542C2.85523 15.4541 2.90872 15.4541 2.96384 15.4541C3.1396 15.4542 3.31535 15.4552 3.49112 15.4562C3.6134 15.4564 3.73567 15.4566 3.85795 15.4568C4.17901 15.4573 4.50006 15.4585 4.82111 15.4599C5.20674 15.4615 5.59237 15.4621 5.978 15.4628C6.56316 15.4641 7.14829 15.4666 7.73344 15.4688C7.71217 14.2139 7.6909 12.959 7.66899 11.6661C7.39249 11.9 7.11598 12.134 6.8311 12.375C6.66094 12.4896 6.50629 12.5906 6.32756 12.6852C6.26351 12.72 6.26351 12.72 6.19817 12.7555C5.22792 13.2678 4.21978 13.5452 3.12102 13.5634C3.03929 13.5656 3.03929 13.5656 2.95592 13.5678C2.60637 13.5664 2.39806 13.5167 2.12602 13.2774C1.91899 13.0071 1.90591 12.7683 1.91071 12.4393C1.91067 12.3628 1.91067 12.3628 1.91063 12.2848C1.91076 12.1171 1.91226 11.9494 1.91378 11.7816C1.91414 11.665 1.91442 11.5484 1.91461 11.4319C1.91535 11.1255 1.91724 10.8192 1.91939 10.5129C1.92137 10.2001 1.92225 9.88728 1.92322 9.57448C1.92529 8.96112 1.92859 8.34777 1.93266 7.73442C1.8742 7.73645 1.8742 7.73645 1.81455 7.73851C1.6364 7.7439 1.45827 7.74723 1.28007 7.75054C1.21876 7.7527 1.15744 7.75486 1.09427 7.75708C0.705636 7.76248 0.488157 7.73558 0.192428 7.47661C-0.0690134 7.14 -0.0508164 6.78996 -0.000931263 6.38091C0.138749 6.08603 0.283263 5.93352 0.579147 5.80083C0.811969 5.77747 1.04236 5.78262 1.27605 5.78874C1.33915 5.78962 1.40225 5.79049 1.46727 5.79139C1.62243 5.79366 1.77753 5.79683 1.93266 5.80083C1.93209 5.73628 1.93152 5.67173 1.93093 5.60523C1.9257 4.99642 1.92183 4.38761 1.9193 3.77878C1.91796 3.46578 1.91614 3.15281 1.91321 2.83982C1.91041 2.53768 1.90887 2.23554 1.9082 1.93338C1.90773 1.81821 1.9068 1.70303 1.9054 1.58787C1.90353 1.42631 1.90327 1.26483 1.90339 1.10327C1.90247 1.05584 1.90154 1.00842 1.90059 0.959553C1.90321 0.630806 1.98532 0.447403 2.19047 0.193406C2.47267 -0.0480423 2.76299 -0.029936 3.11699 -0.0241229ZM17.6028 2.39287C17.4939 2.67121 17.4878 2.92794 17.5303 3.2227C17.6697 3.50669 17.8137 3.68669 18.1104 3.80278C18.4355 3.84688 18.6796 3.83978 18.9765 3.69402C19.193 3.49864 19.3153 3.36828 19.3554 3.0724C19.3725 2.70389 19.333 2.47489 19.0772 2.19145C18.8299 1.97323 18.5852 1.96504 18.2675 1.97543C17.967 2.01878 17.7977 2.17204 17.6028 2.39287ZM3.86626 2.06255C3.86626 5.1679 3.86626 8.27325 3.86626 11.4727C5.20337 11.1384 6.28447 10.4667 7.02446 9.2813C7.20281 8.9698 7.3447 8.64838 7.47563 8.3145C7.49889 8.25551 7.52216 8.19652 7.54613 8.13574C7.9179 6.96191 7.7111 5.63097 7.16575 4.55902C6.90766 4.07361 6.58993 3.66171 6.18657 3.28716C6.12974 3.22983 6.12974 3.22983 6.07176 3.17134C5.78449 2.89479 5.48326 2.68407 5.13518 2.49358C5.09784 2.47261 5.06051 2.45165 5.02204 2.43005C4.63677 2.2283 4.316 2.17498 3.86626 2.06255ZM16.2533 14.5544C16.0004 14.8693 16.0004 14.8693 15.7256 15.4688C17.5123 15.4688 19.2989 15.4688 21.1397 15.4688C20.6814 14.5521 20.2223 13.9959 19.2497 13.653C18.1123 13.3968 17.0548 13.6975 16.2533 14.5544ZM2.26701 17.6884C1.79416 18.2423 1.93266 18.6894 1.93266 19.4649C10.8021 19.4649 19.6715 19.4649 28.8096 19.4649C28.6309 19.2862 28.495 19.1582 28.2927 19.0213C28.2432 18.9876 28.1937 18.9539 28.1427 18.9191C28.0903 18.8839 28.0378 18.8486 27.9838 18.8123C27.9296 18.7756 27.8754 18.739 27.8196 18.7012C27.7088 18.6263 27.598 18.5516 27.487 18.4769C27.3401 18.3779 27.1937 18.278 27.0475 18.1778C26.9635 18.1207 26.8795 18.0637 26.7955 18.0066C26.7579 17.9808 26.7204 17.9549 26.6817 17.9283C25.8993 17.4017 25.0523 17.3829 24.1319 17.386C24.04 17.3859 23.9482 17.3857 23.8563 17.3854C23.6063 17.3849 23.3563 17.3851 23.1062 17.3855C22.8357 17.3858 22.5651 17.3854 22.2946 17.385C21.7656 17.3845 21.2367 17.3846 20.7077 17.385C20.2778 17.3852 19.8479 17.3853 19.4181 17.3851C19.3568 17.3851 19.2955 17.3851 19.2323 17.3851C19.1078 17.385 18.9833 17.385 18.8588 17.385C17.6928 17.3846 16.5269 17.385 15.3609 17.3857C14.3607 17.3863 13.3605 17.3862 12.3603 17.3856C11.1978 17.3849 10.0353 17.3846 8.8728 17.385C8.74886 17.3851 8.62492 17.3851 8.50099 17.3851C8.40952 17.3852 8.40952 17.3852 8.31621 17.3852C7.88671 17.3853 7.4572 17.3851 7.02769 17.3848C6.50451 17.3845 5.98133 17.3846 5.45815 17.3852C5.19127 17.3856 4.9244 17.3857 4.65752 17.3853C4.41319 17.3849 4.16887 17.3851 3.92455 17.3858C3.7944 17.386 3.66425 17.3856 3.5341 17.3852C2.85003 17.3752 2.85003 17.3752 2.26701 17.6884ZM1.93266 21.3985C1.93266 22.6747 1.93266 23.9508 1.93266 25.2657C2.83493 25.3736 2.83493 25.3736 3.14519 25.0441C3.21389 24.9462 3.28236 24.8482 3.35063 24.75C4.11648 23.9163 5.24036 23.431 6.36381 23.3724C7.72241 23.3312 8.989 23.6226 10.0054 24.5688C10.1847 24.7392 10.3509 24.9053 10.4878 25.1128C10.6236 25.2835 10.6236 25.2835 10.8394 25.3104C11.1607 25.3172 11.1607 25.3172 11.4822 25.3183C11.6199 25.318 11.757 25.3222 11.8946 25.3267C12.3649 25.3393 12.3649 25.3393 12.7856 25.1574C12.8988 25.0273 12.9913 24.8958 13.0831 24.75C13.8593 23.92 14.9647 23.4314 16.0962 23.3724C17.4548 23.3312 18.7214 23.6226 19.7378 24.5688C19.917 24.7391 20.0833 24.906 20.2217 25.1123C20.4589 25.364 20.7096 25.3214 21.0405 25.3334C21.1286 25.334 21.2167 25.3343 21.3049 25.3342C21.3491 25.3344 21.3934 25.3347 21.4391 25.3349C22.0306 25.347 22.0306 25.347 22.5534 25.1126C22.7224 24.918 22.7224 24.918 22.8621 24.7017C23.2632 24.1293 24.0451 23.8109 24.6846 23.5899C24.7393 23.5694 24.794 23.5488 24.8503 23.5277C26.0915 23.1351 27.487 23.3749 28.625 23.9448C29.1285 24.218 29.6409 24.6275 29.9493 25.1147C30.0916 25.2893 30.0916 25.2893 30.3353 25.2971C30.423 25.295 30.5107 25.2912 30.5982 25.2858C30.6656 25.2836 30.6656 25.2836 30.7344 25.2814C30.8448 25.2776 30.9552 25.2718 31.0655 25.2657C31.067 24.771 31.0681 24.2763 31.0688 23.7816C31.0692 23.5519 31.0696 23.3222 31.0703 23.0925C31.0712 22.8287 31.0715 22.5649 31.0718 22.3011C31.0721 22.2182 31.0724 22.1354 31.0728 22.05C31.0728 21.9739 31.0728 21.8978 31.0728 21.8193C31.0729 21.7519 31.0731 21.6845 31.0732 21.6151C31.0827 21.4657 31.0827 21.4657 31.001 21.3985C30.8464 21.3921 30.6937 21.39 30.5391 21.3906C30.49 21.3905 30.4408 21.3904 30.3902 21.3903C30.2234 21.3902 30.0565 21.3904 29.8897 21.3907C29.7698 21.3907 29.6498 21.3906 29.5299 21.3906C29.1986 21.3904 28.8673 21.3907 28.536 21.391C28.1794 21.3913 27.8228 21.3912 27.4661 21.3911C26.8477 21.3911 26.2293 21.3913 25.6109 21.3917C24.7167 21.3922 23.8226 21.3924 22.9284 21.3924C21.4779 21.3926 20.0273 21.393 18.5768 21.3936C17.1674 21.3942 15.7579 21.3947 14.3485 21.3949C14.305 21.395 14.2616 21.395 14.2169 21.395C13.7808 21.3951 13.3448 21.3951 12.9088 21.3952C9.25006 21.3959 5.59136 21.397 1.93266 21.3985ZM4.7686 26.1036C4.72756 26.1419 4.68651 26.1803 4.64423 26.2199C4.09719 26.7857 3.90903 27.5178 3.90589 28.283C3.91954 29.025 4.19918 29.6253 4.70415 30.1641C4.76172 30.2257 4.76172 30.2257 4.82046 30.2885C5.38628 30.8355 6.11839 31.0237 6.88358 31.0268C7.62563 31.0132 8.22592 30.7335 8.76469 30.2286C8.82626 30.171 8.82626 30.171 8.88907 30.1122C9.43611 29.5464 9.62426 28.8143 9.6274 28.0491C9.61375 27.3071 9.33412 26.7068 8.82915 26.168C8.77157 26.1065 8.77157 26.1065 8.71283 26.0436C8.14701 25.4966 7.4149 25.3085 6.64972 25.3053C5.90766 25.319 5.30737 25.5986 4.7686 26.1036ZM14.501 26.1036C14.46 26.1419 14.4189 26.1803 14.3766 26.2199C13.8296 26.7857 13.6415 27.5178 13.6383 28.283C13.652 29.025 13.9316 29.6253 14.4366 30.1641C14.4941 30.2257 14.4941 30.2257 14.5529 30.2885C15.1187 30.8355 15.8508 31.0237 16.616 31.0268C17.3581 31.0132 17.9583 30.7335 18.4971 30.2286C18.5587 30.171 18.5587 30.171 18.6215 30.1122C19.1685 29.5464 19.3567 28.8143 19.3598 28.0491C19.3462 27.3071 19.0665 26.7068 18.5616 26.168C18.504 26.1065 18.504 26.1065 18.4453 26.0436C17.8794 25.4966 17.1473 25.3085 16.3821 25.3053C15.6401 25.319 15.0398 25.5986 14.501 26.1036ZM23.9233 26.3775C23.3956 27.1035 23.2394 27.8658 23.3311 28.7461C23.4457 29.1738 23.6449 29.5542 23.9112 29.9063C23.9457 29.9581 23.9803 30.01 24.0159 30.0634C24.5545 30.6446 25.2907 31.0018 26.0815 31.0401C26.9205 31.0521 27.6116 30.8077 28.2295 30.2286C28.2911 30.171 28.2911 30.171 28.3539 30.1122C28.9009 29.5464 29.0891 28.8143 29.0922 28.0491C29.0786 27.3071 28.799 26.7068 28.294 26.168C28.2364 26.1065 28.2364 26.1065 28.1777 26.0436C27.6118 25.4966 26.8797 25.3084 26.1144 25.3053C25.2592 25.321 24.4703 25.7187 23.9233 26.3775ZM21.2686 27.1993C21.2686 27.2631 21.2686 27.3269 21.2686 27.3926C21.3111 27.3926 21.3537 27.3926 21.3975 27.3926C21.3975 27.3288 21.3975 27.265 21.3975 27.1993C21.355 27.1993 21.3124 27.1993 21.2686 27.1993Z" fill="white"/>
<path d="M26.6201 27.1992C26.9176 27.3401 27.0537 27.489 27.2001 27.7793C27.2536 28.1369 27.2468 28.4542 27.0914 28.7824C26.8914 28.9931 26.7242 29.1173 26.433 29.1608C26.0367 29.1613 25.762 29.1616 25.4599 28.875C25.2092 28.5243 25.2156 28.1971 25.2665 27.7793C25.5476 27.186 26.0175 27.1257 26.6201 27.1992Z" fill="white"/>
<path d="M16.8876 27.1992C17.1851 27.3401 17.3213 27.489 17.4677 27.7793C17.5211 28.1369 17.5144 28.4542 17.3589 28.7824C17.159 28.9931 16.9918 29.1173 16.7006 29.1608C16.3043 29.1613 16.0296 29.1616 15.7275 28.875C15.4768 28.5243 15.4832 28.1971 15.5341 27.7793C15.8152 27.186 16.2851 27.1257 16.8876 27.1992Z" fill="white"/>
<path d="M7.15521 27.1992C7.45271 27.3401 7.58889 27.489 7.73529 27.7793C7.78871 28.1369 7.78196 28.4542 7.62652 28.7824C7.4266 28.9931 7.2594 29.1173 6.96814 29.1608C6.57186 29.1613 6.29714 29.1616 5.99505 28.875C5.74437 28.5243 5.75075 28.1971 5.80169 27.7793C6.08275 27.186 6.55265 27.1257 7.15521 27.1992Z" fill="white"/>
</g>
<defs>
<clipPath id="clip0_184_68">
<rect width="33" height="33" fill="white"/>
</clipPath>
</defs>
</svg>
