<svg width="33" height="33" viewBox="0 0 33 33" fill="none" xmlns="http://www.w3.org/2000/svg">
<path d="M4.5402 2.69029C4.64757 2.69009 4.75493 2.68984 4.8623 2.68954C5.15611 2.68888 5.44992 2.68902 5.74373 2.68929C6.06109 2.68945 6.37844 2.68887 6.69579 2.68839C7.31706 2.68757 7.93833 2.68745 8.5596 2.6876C9.0647 2.68772 9.5698 2.6876 10.0749 2.68733C10.1468 2.68729 10.2188 2.68725 10.2929 2.68721C10.439 2.68714 10.5852 2.68706 10.7313 2.68698C12.1015 2.68628 13.4716 2.68642 14.8417 2.68681C16.0944 2.68714 17.347 2.68642 18.5997 2.68519C19.8868 2.68394 21.1738 2.68341 22.4609 2.68365C23.1831 2.68378 23.9054 2.68362 24.6276 2.68271C25.2425 2.68194 25.8574 2.68185 26.4723 2.68263C26.7858 2.68301 27.0993 2.68308 27.4129 2.68231C27.7003 2.6816 27.9877 2.68181 28.2751 2.68271C28.3787 2.68288 28.4822 2.68273 28.5858 2.68221C29.7559 2.67677 30.6959 2.89125 31.567 3.71543C32.2695 4.45994 32.5042 5.33289 32.5005 6.33269C32.5007 6.40371 32.501 6.47472 32.5012 6.54788C32.5019 6.78477 32.5017 7.02165 32.5014 7.25854C32.5017 7.42882 32.502 7.5991 32.5024 7.76938C32.5032 8.18328 32.5033 8.59718 32.5032 9.01108C32.5031 9.34771 32.5032 9.68433 32.5035 10.021C32.5035 10.069 32.5035 10.117 32.5036 10.1664C32.5036 10.2639 32.5037 10.3614 32.5038 10.459C32.5045 11.3726 32.5044 12.2863 32.504 13.1999C32.5036 14.0346 32.5044 14.8693 32.5056 15.704C32.5068 16.5623 32.5074 17.4206 32.5071 18.2788C32.507 18.7602 32.5072 19.2416 32.5081 19.7229C32.5088 20.1328 32.5089 20.5426 32.5082 20.9524C32.5078 21.1613 32.5078 21.3701 32.5085 21.5789C32.5092 21.806 32.5086 22.033 32.5078 22.2601C32.5083 22.3251 32.5088 22.3902 32.5093 22.4572C32.5018 23.4488 32.1653 24.2706 31.4832 24.9892C30.6305 25.7774 29.6384 25.9208 28.5239 25.9187C28.4593 25.9188 28.3948 25.919 28.3282 25.9191C28.1135 25.9195 27.8988 25.9194 27.6841 25.9194C27.5295 25.9196 27.3748 25.9198 27.2202 25.92C26.888 25.9205 26.5559 25.9209 26.2237 25.9211C25.6982 25.9214 25.1728 25.9225 24.6473 25.9238C24.4672 25.9242 24.287 25.9246 24.1069 25.925C24.0619 25.9251 24.0169 25.9252 23.9705 25.9253C23.4593 25.9264 22.948 25.9275 22.4367 25.9285C22.39 25.9285 22.3433 25.9286 22.2952 25.9287C21.5382 25.9301 20.7812 25.9308 20.0241 25.9313C19.2455 25.9318 18.4669 25.9333 17.6883 25.9357C17.2517 25.937 16.8151 25.9378 16.3784 25.9374C15.9679 25.9371 15.5574 25.938 15.1469 25.9398C14.9964 25.9403 14.846 25.9403 14.6956 25.9398C14.4898 25.9392 14.284 25.9403 14.0782 25.9417C14.0191 25.9411 13.96 25.9406 13.8991 25.94C13.2329 25.9483 12.736 26.2185 12.2172 26.6152C12.116 26.6904 12.0147 26.7655 11.9133 26.8405C11.8618 26.8787 11.8103 26.9169 11.7573 26.9563C11.5052 27.1402 11.247 27.3146 10.9886 27.4893C10.5919 27.7585 10.1999 28.033 9.81231 28.3151C9.36054 28.6437 8.90496 28.9665 8.44671 29.2859C8.38645 29.3281 8.32619 29.3702 8.26411 29.4137C6.94517 30.3307 6.94517 30.3307 6.38018 30.293C5.99053 30.1768 5.76597 29.9788 5.54229 29.6485C5.48027 29.4624 5.46881 29.341 5.46665 29.1474C5.46578 29.085 5.46491 29.0226 5.46401 28.9583C5.46334 28.8911 5.46267 28.8238 5.46197 28.7545C5.45985 28.6123 5.45771 28.4702 5.45555 28.3281C5.45249 28.1038 5.44963 27.8794 5.4471 27.6551C5.44455 27.4388 5.44122 27.2225 5.4378 27.0062C5.43726 26.939 5.43672 26.8719 5.43616 26.8027C5.43509 26.7401 5.43401 26.6775 5.43291 26.613C5.43191 26.5306 5.43191 26.5306 5.4309 26.4465C5.41173 26.2828 5.37206 26.1782 5.28448 26.0391C5.10142 25.9476 4.9375 25.9582 4.7331 25.9492C4.64598 25.9448 4.55887 25.9403 4.47176 25.9358C4.33534 25.9289 4.19893 25.9224 4.06245 25.9167C3.02441 25.8727 2.066 25.6149 1.33294 24.8271C0.73165 24.0467 0.483866 23.2436 0.490391 22.2614C0.490089 22.1902 0.489787 22.119 0.489477 22.0457C0.488711 21.8094 0.489314 21.5731 0.489925 21.3368C0.489662 21.1665 0.489325 20.9962 0.488898 20.8259C0.488041 20.4127 0.488222 19.9994 0.488784 19.5862C0.489222 19.2501 0.48928 18.9141 0.48907 18.578C0.48904 18.53 0.48901 18.4821 0.48898 18.4326C0.488918 18.3352 0.488855 18.2377 0.488792 18.1402C0.488241 17.2278 0.488873 16.3155 0.489913 15.4031C0.490777 14.6215 0.490627 13.84 0.489736 13.0584C0.488699 12.1491 0.488294 11.2399 0.488887 10.3306C0.488949 10.2335 0.48901 10.1364 0.48907 10.0393C0.489099 9.99154 0.489129 9.94377 0.48916 9.89456C0.489327 9.55919 0.489046 9.22383 0.48859 8.88846C0.488046 8.47933 0.488199 8.07021 0.489225 7.66109C0.48973 7.45265 0.489831 7.24422 0.489292 7.03578C0.488761 6.80916 0.48943 6.58257 0.490391 6.35595C0.489959 6.29101 0.489528 6.22608 0.489084 6.15918C0.497253 5.15982 0.838269 4.34781 1.52328 3.62378C2.39605 2.80023 3.38943 2.68732 4.5402 2.69029ZM15.334 6.56581C14.8467 7.10693 14.5735 7.85416 14.268 8.50806C14.2057 8.64099 14.1428 8.77359 14.0798 8.90617C14.0612 8.94652 14.0426 8.98688 14.0234 9.02845C13.9121 9.2618 13.7995 9.43883 13.5989 9.60357C13.4382 9.64991 13.2957 9.68081 13.1316 9.70428C13.0853 9.7117 13.039 9.71912 12.9913 9.72677C12.3155 9.83159 11.6354 9.91029 10.9564 9.99029C10.9314 9.94638 10.9064 9.90247 10.8807 9.85723C10.8471 9.79945 10.8135 9.74166 10.7789 9.68213C10.7294 9.59632 10.7294 9.59632 10.679 9.50878C10.4629 9.18662 10.1847 9.0104 9.82842 8.87042C9.23571 8.76458 8.77449 8.85688 8.27601 9.20402C7.54866 9.86663 6.9494 11.3764 6.63799 12.3106C6.1369 12.4166 5.63662 12.5135 5.12964 12.5865C5.08448 12.5931 5.03933 12.5996 4.99281 12.6063C4.80818 12.6328 4.62352 12.659 4.43876 12.6846C3.33595 12.8314 3.33595 12.8314 2.49688 13.5312C2.24341 13.9748 2.19133 14.392 2.27834 14.8933C2.40591 15.3191 2.7241 15.6114 3.02862 15.92C3.09456 15.9872 3.09456 15.9872 3.16183 16.0559C3.77914 16.6968 3.77914 16.6968 4.44205 17.2886C4.6206 17.4398 4.71959 17.553 4.76885 17.7891C4.76457 17.9782 4.76457 17.9782 4.7326 18.204C4.72684 18.2465 4.72108 18.2889 4.71514 18.3326C4.66939 18.6555 4.61318 18.9765 4.55686 19.2977C4.54197 19.3836 4.52707 19.4695 4.51219 19.5554C4.48252 19.7264 4.45165 19.897 4.42013 20.0676C4.3174 20.6511 4.25163 21.1822 4.5478 21.7215C4.77181 22.033 5.06363 22.2819 5.4013 22.462C5.46909 22.4726 5.53689 22.4832 5.60674 22.4942C5.65859 22.5023 5.71043 22.5105 5.76385 22.5189C6.41867 22.574 6.91752 22.2795 7.47588 21.9786C7.5361 21.9461 7.59631 21.9137 7.65835 21.8803C7.91189 21.7432 8.16511 21.6056 8.41697 21.4654C8.47431 21.4335 8.53164 21.4016 8.59072 21.3688C8.66683 21.3261 8.66683 21.3261 8.74449 21.2826C9.08801 21.1045 9.27847 21.0508 9.66729 21.1407C9.82796 21.2101 9.97698 21.2809 10.1303 21.3635C10.1728 21.3857 10.2153 21.4079 10.259 21.4307C10.3938 21.5013 10.528 21.5727 10.6623 21.6442C10.7521 21.6915 10.8419 21.7387 10.9318 21.7858C11.1025 21.8754 11.273 21.9653 11.4435 22.0553C12.0317 22.3646 12.4693 22.5661 13.1478 22.4942C13.6452 22.3395 13.9961 22.0546 14.2452 21.5999C14.4773 21.0695 14.3788 20.5221 14.2717 19.9715C14.2421 19.7783 14.2416 19.5956 14.2435 19.4004C14.5179 19.2522 14.793 19.1054 15.0688 18.9599C15.1624 18.9102 15.2558 18.8602 15.349 18.8098C15.4835 18.7371 15.6187 18.6658 15.7541 18.5948C15.7951 18.5722 15.8362 18.5497 15.8785 18.5264C16.1735 18.374 16.426 18.3128 16.7571 18.3692C16.93 18.4273 17.085 18.5071 17.2446 18.5948C17.31 18.6291 17.31 18.6291 17.3767 18.6641C17.5145 18.7367 17.6514 18.8107 17.7884 18.8848C17.8822 18.9346 17.9761 18.9843 18.0701 19.0339C18.2991 19.155 18.5273 19.2773 18.7552 19.4004C18.7453 19.5252 18.7353 19.6499 18.7252 19.7746C18.7197 19.844 18.7141 19.9135 18.7084 19.985C18.6907 20.1739 18.6907 20.1739 18.6545 20.3753C18.5565 21.0193 18.6666 21.4526 19.021 21.9947C19.3763 22.3345 19.7427 22.512 20.2376 22.5305C21.101 22.4857 21.8991 21.9149 22.6426 21.5108C22.7803 21.4361 22.9188 21.3628 23.0574 21.2897C23.0981 21.2671 23.1387 21.2445 23.1806 21.2212C23.4766 21.0673 23.6563 21.0504 23.9759 21.1407C24.2189 21.2483 24.4515 21.3723 24.6849 21.4992C24.7501 21.534 24.8153 21.5687 24.8826 21.6045C25.0748 21.7071 25.2666 21.8105 25.4583 21.9141C25.6048 21.9928 25.7513 22.0713 25.8979 22.1496C26.0144 22.212 26.1306 22.2749 26.2468 22.3378C26.655 22.5483 27.1115 22.5657 27.5558 22.4524C27.9767 22.2829 28.2918 22.0251 28.5105 21.6256C28.8578 20.8031 28.5445 19.8471 28.3866 19.0023C28.3591 18.8541 28.3324 18.7057 28.3058 18.5573C28.2972 18.5127 28.2886 18.4681 28.2798 18.4222C28.222 18.0954 28.1969 17.7654 28.367 17.4689C28.5411 17.2829 28.7193 17.1084 28.9133 16.9432C29.2296 16.6682 29.5278 16.3765 29.825 16.0811C29.8789 16.0285 29.9328 15.9759 29.9884 15.9217C30.4299 15.4831 30.744 15.0992 30.7636 14.4577C30.7574 13.9335 30.5287 13.5138 30.1634 13.1485C29.8535 12.9488 29.6055 12.8494 29.2376 12.7872C29.1933 12.7795 29.1491 12.7719 29.1034 12.764C28.7787 12.7092 28.4527 12.6647 28.1263 12.6215C28.0807 12.6154 28.0351 12.6094 27.9881 12.6031C27.7094 12.5659 27.7094 12.5659 27.4304 12.5313C27.2915 12.5146 27.1531 12.4957 27.0145 12.4765C26.9336 12.4663 26.8528 12.456 26.7695 12.4455C26.4095 12.3278 26.2656 12.0659 26.1007 11.7455C26.058 11.6557 26.0158 11.5656 25.9742 11.4752C25.9512 11.4269 25.9283 11.3786 25.9046 11.3289C25.8075 11.1243 25.7116 10.9191 25.6156 10.7139C25.2079 9.72719 25.2079 9.72719 24.4512 9.02752C24.4039 9.00301 24.3565 8.9785 24.3077 8.95325C23.8561 8.76192 23.4087 8.78851 22.9555 8.95703C22.5948 9.12856 22.3776 9.36424 22.1903 9.71385C22.1623 9.76573 22.1343 9.8176 22.1054 9.87105C22.0742 9.93007 22.0742 9.93007 22.0423 9.99029C20.568 9.81659 20.568 9.81659 19.867 9.70428C19.823 9.69798 19.7789 9.69168 19.7336 9.68519C19.4493 9.63694 19.325 9.56494 19.1419 9.34576C19.045 9.17583 18.9644 8.99952 18.8833 8.82158C18.834 8.71666 18.7846 8.61175 18.7352 8.50686C18.6587 8.34289 18.5825 8.17877 18.507 8.01434C18.0396 6.93744 18.0396 6.93744 17.1761 6.18353C16.4778 5.99648 15.8737 6.03336 15.334 6.56581Z" fill="white"/>
<path d="M16.7584 7.15426C17.0561 7.40746 17.2027 7.68207 17.3664 8.0279C17.3923 8.08074 17.4181 8.13358 17.4447 8.18801C17.5543 8.41253 17.6624 8.63779 17.7706 8.86299C17.8502 9.02801 17.9306 9.19263 18.011 9.35725C18.0348 9.40748 18.0585 9.45772 18.083 9.50947C18.3229 10.0001 18.5906 10.3813 19.1093 10.5848C19.4125 10.6777 19.72 10.7237 20.0334 10.7677C20.1034 10.7783 20.1734 10.7889 20.2455 10.7999C20.5845 10.8511 20.9239 10.8983 21.2638 10.9426C21.3222 10.9506 21.3806 10.9585 21.4408 10.9667C21.5496 10.9813 21.6585 10.995 21.7676 11.0076C22.0793 11.0495 22.2652 11.1124 22.4948 11.3437C22.5998 11.5539 22.5893 11.6903 22.5592 11.9238C22.1775 12.5019 21.5599 12.9867 21.0642 13.4673C20.9426 13.5854 20.8218 13.7043 20.7011 13.8234C20.6641 13.8589 20.627 13.8945 20.5888 13.9311C20.2033 14.3141 20.0524 14.7358 20.0455 15.2754C20.063 15.4853 20.0986 15.6896 20.1379 15.8965C20.148 15.9534 20.1581 16.0103 20.1686 16.0689C20.2006 16.249 20.2338 16.4289 20.2671 16.6087C20.3 16.7893 20.3326 16.9699 20.3649 17.1506C20.385 17.2625 20.4054 17.3743 20.4263 17.4861C20.5516 18.1776 20.5516 18.1776 20.4202 18.4819C20.2804 18.6554 20.1975 18.7055 19.9811 18.7558C19.6533 18.7277 19.3956 18.6067 19.1095 18.4545C19.064 18.4308 19.0186 18.4072 18.9718 18.3829C18.8272 18.3076 18.6831 18.2316 18.5389 18.1556C18.4426 18.1052 18.3463 18.0549 18.2499 18.0047C18.1132 17.9334 17.9766 17.862 17.8402 17.7903C17.7161 17.7251 17.5918 17.6602 17.4674 17.5957C17.4217 17.5719 17.376 17.548 17.3289 17.5235C17.2836 17.5003 17.2382 17.477 17.1914 17.4531C17.1301 17.4215 17.1301 17.4215 17.0676 17.3892C16.6708 17.2132 16.2127 17.2768 15.8186 17.4242C15.6002 17.5276 15.3898 17.6448 15.1795 17.7635C14.9188 17.9089 14.6546 18.0476 14.3902 18.1863C14.2469 18.2614 14.104 18.3373 13.9614 18.4138C13.8621 18.4663 13.8621 18.4663 13.7608 18.5199C13.7019 18.5514 13.643 18.5829 13.5823 18.6153C13.3005 18.7375 13.1022 18.7858 12.8107 18.6793C12.6232 18.5557 12.5801 18.509 12.5045 18.3047C12.4799 17.6229 12.6727 16.9082 12.7989 16.2404C12.9999 15.1734 12.9999 15.1734 12.6334 14.1797C12.4822 13.997 12.3157 13.8332 12.1452 13.6686C12.0985 13.6224 12.0519 13.5762 12.0037 13.5286C11.8557 13.3825 11.7068 13.2372 11.5579 13.092C11.4084 12.9453 11.2591 12.7983 11.1099 12.6512C11.0173 12.56 10.9245 12.4691 10.8314 12.3784C10.7897 12.3375 10.748 12.2965 10.7049 12.2544C10.6681 12.2185 10.6312 12.1825 10.5932 12.1455C10.4539 11.9965 10.4415 11.9186 10.4219 11.7103C10.4459 11.427 10.4868 11.3368 10.6998 11.1504C11.066 11.0426 11.4315 10.985 11.8094 10.9356C11.9226 10.9199 12.0357 10.9042 12.1489 10.8884C12.3247 10.8641 12.5006 10.8402 12.6766 10.8172C13.6655 10.7243 13.6655 10.7243 14.4706 10.2024C14.7062 9.8894 14.8886 9.57066 15.057 9.21752C15.1103 9.10846 15.1637 8.9994 15.2171 8.89034C15.2994 8.72042 15.3816 8.55039 15.4636 8.3803C15.5437 8.21465 15.6246 8.04939 15.7055 7.88414C15.7298 7.83318 15.754 7.78223 15.779 7.72972C15.987 7.30612 16.2355 7.00626 16.7584 7.15426Z" fill="white"/>
<path d="M24.041 9.99025C24.2837 10.2995 24.4527 10.6694 24.6231 11.022C24.6705 11.1184 24.7179 11.2149 24.7654 11.3113C24.8385 11.4608 24.9115 11.6104 24.9842 11.7602C25.0554 11.9064 25.1272 12.0524 25.1992 12.1983C25.2205 12.2426 25.2417 12.2869 25.2637 12.3326C25.4949 12.7998 25.7565 13.115 26.2324 13.3418C26.44 13.4046 26.44 13.4046 26.6635 13.4385C26.7056 13.4459 26.7477 13.4533 26.7911 13.4609C27.0978 13.5129 27.4059 13.5553 27.7141 13.5976C27.7938 13.6086 27.8734 13.6196 27.9555 13.631C28.1148 13.6527 28.2741 13.6738 28.4336 13.6942C29.4506 13.8307 29.4506 13.8307 29.6807 14.0991C29.73 14.3209 29.7472 14.4668 29.7129 14.6953C29.5848 14.8896 29.4266 15.0476 29.2617 15.211C29.2199 15.2543 29.1781 15.2977 29.1351 15.3424C28.9313 15.5514 28.722 15.7501 28.5004 15.9401C27.6438 16.6614 27.6438 16.6614 27.1992 17.6602C27.2023 18.3813 27.3612 19.096 27.4936 19.8021C27.5211 19.9499 27.5478 20.0979 27.5744 20.2458C27.5829 20.2902 27.5915 20.3346 27.6004 20.3804C27.6521 20.6713 27.6501 20.9165 27.5859 21.2051C27.4129 21.4096 27.3075 21.4569 27.0424 21.4934C26.6424 21.4847 26.3161 21.2653 25.9746 21.0762C25.8309 20.9993 25.6871 20.9224 25.5433 20.8456C25.4078 20.7721 25.2722 20.6986 25.1367 20.625C24.2823 20.1185 24.2823 20.1185 23.325 20.0783C22.971 20.1971 22.6486 20.3472 22.3207 20.5251C22.2162 20.5803 22.1118 20.6355 22.0073 20.6906C21.8453 20.7767 21.6835 20.8632 21.522 20.9503C21.3644 21.0351 21.2061 21.1185 21.0477 21.2018C21 21.228 20.9524 21.2542 20.9032 21.2812C20.5785 21.4504 20.3471 21.5004 19.9805 21.4629C19.8238 21.3424 19.7458 21.2514 19.6582 21.0762C19.6633 20.7953 19.6927 20.5175 19.7227 20.2383C19.7279 20.1646 19.7279 20.1646 19.7332 20.0895C19.7509 19.9724 19.7509 19.9724 19.8516 19.7871C20.0068 19.7193 20.1595 19.68 20.3241 19.6406C20.7354 19.5286 21.0427 19.2945 21.2718 18.9374C21.5453 18.4225 21.4831 17.8856 21.3783 17.3346C21.3607 17.2367 21.343 17.1388 21.3254 17.0409C21.2976 16.8895 21.2696 16.738 21.2414 16.5866C20.9632 15.0838 20.9632 15.0838 21.1533 14.7555C21.2698 14.6167 21.3946 14.4963 21.5273 14.3731C21.6371 14.2615 21.7467 14.1498 21.8562 14.038C21.9747 13.9199 22.0933 13.802 22.2122 13.6842C22.3019 13.5949 22.3019 13.5949 22.3934 13.5038C22.5046 13.3932 22.6159 13.2827 22.7272 13.1722C22.7779 13.1218 22.8286 13.0714 22.8809 13.0195C22.9375 12.9641 22.9941 12.9087 23.0524 12.8517C23.4552 12.4391 23.5453 12.1008 23.5392 11.5419C23.513 11.166 23.4087 10.9002 23.1508 10.6267C23.0098 10.4414 23.0098 10.4414 23.0259 10.236C23.2717 9.84086 23.6413 9.79037 24.041 9.99025Z" fill="white"/>
<path d="M9.81616 10.0425C9.92855 10.1882 9.97058 10.2604 9.98938 10.4413C9.91561 10.5657 9.91561 10.5657 9.80811 10.6911C9.45869 11.1337 9.41394 11.562 9.47375 12.1171C9.6081 12.5388 9.87856 12.8639 10.2122 13.1468C10.5606 13.4497 10.8844 13.7761 11.21 14.1031C11.2723 14.1651 11.3346 14.2272 11.3969 14.2892C11.4554 14.3479 11.514 14.4065 11.5743 14.4669C11.6274 14.52 11.6804 14.5732 11.7351 14.6279C11.959 14.867 11.9402 15.0567 11.9373 15.3729C11.9079 15.8331 11.8139 16.2848 11.7296 16.7376C11.7017 16.8884 11.674 17.0392 11.6469 17.1901C11.6301 17.2832 11.6129 17.3763 11.5952 17.4692C11.4918 18.0414 11.492 18.5731 11.8104 19.077C12.1692 19.5345 12.6732 19.6868 13.212 19.8515C13.4042 20.8961 13.4042 20.8961 13.2886 21.2251C13.212 21.3339 13.212 21.3339 13.0187 21.4628C12.5637 21.5148 12.2793 21.3831 11.8837 21.169C11.8264 21.1391 11.7691 21.1092 11.71 21.0784C11.528 20.9833 11.3468 20.8867 11.1656 20.7901C10.9834 20.6939 10.801 20.598 10.6185 20.5024C10.5053 20.443 10.3922 20.3832 10.2794 20.3229C10.2025 20.2823 10.2025 20.2823 10.1241 20.2408C10.0793 20.2169 10.0345 20.193 9.98833 20.1684C9.6042 19.9907 9.23605 20.0039 8.84106 20.1445C8.36926 20.3211 7.92852 20.5557 7.48376 20.7901C7.39969 20.8339 7.3156 20.8776 7.23149 20.9214C6.80796 21.1407 6.80796 21.1407 6.39458 21.3782C6.17412 21.5082 5.98377 21.5069 5.73547 21.4628C5.54614 21.3621 5.54614 21.3621 5.41321 21.205C5.32538 20.8304 5.37124 20.518 5.44115 20.1475C5.45126 20.0906 5.46137 20.0337 5.47178 19.975C5.50396 19.794 5.53707 19.6133 5.57031 19.4325C5.60322 19.2517 5.63591 19.0709 5.66816 18.8901C5.68819 18.7779 5.70861 18.6657 5.72949 18.5537C5.82317 18.0324 5.85386 17.5619 5.60657 17.08C5.43146 16.8465 5.23203 16.6422 5.02649 16.4354C4.96251 16.3698 4.89856 16.3042 4.83464 16.2386C4.557 15.9556 4.27728 15.6774 3.9751 15.4203C3.30868 14.8447 3.30868 14.8447 3.25 14.4535C3.28258 14.2653 3.30604 14.1413 3.41516 13.9862C3.6022 13.8615 3.67563 13.8351 3.88854 13.8043C3.94493 13.7959 4.00131 13.7875 4.05941 13.7789C4.12024 13.7703 4.18107 13.7617 4.24374 13.7528C4.37294 13.7336 4.50214 13.7143 4.63134 13.6951C4.83469 13.6654 5.03806 13.6358 5.24145 13.6064C5.43801 13.5778 5.63445 13.5485 5.83089 13.5192C5.89107 13.5107 5.95124 13.5023 6.01324 13.4935C6.52904 13.4162 7.05741 13.3065 7.41125 12.8905C7.55262 12.6701 7.66953 12.4401 7.78589 12.2057C7.8358 12.1079 7.8358 12.1079 7.88672 12.0081C8.12749 11.533 8.35815 11.0529 8.57514 10.5664C8.70815 10.2748 8.8331 10.0078 9.14343 9.87331C9.41126 9.84968 9.60204 9.87468 9.81616 10.0425Z" fill="white"/>
</svg>
