<svg width="18" height="20" viewBox="0 0 18 20" fill="none" xmlns="http://www.w3.org/2000/svg">
<path d="M17.3346 19.9999L12.9596 15.8333L13.4846 17.4999H2.7513C2.19877 17.4999 1.66886 17.2804 1.27816 16.8897C0.887462 16.499 0.667969 15.9691 0.667969 15.4166V2.91659C0.667969 2.36405 0.887462 1.83415 1.27816 1.44345C1.66886 1.05275 2.19877 0.833252 2.7513 0.833252H15.2513C15.8038 0.833252 16.3337 1.05275 16.7244 1.44345C17.1151 1.83415 17.3346 2.36405 17.3346 2.91659V19.9999ZM9.0013 5.66659C6.76797 5.66659 5.2013 6.62492 5.2013 6.62492C6.05964 5.85825 7.55964 5.41658 7.55964 5.41658L7.41797 5.27492C6.00964 5.29992 4.73464 6.27492 4.73464 6.27492C3.3013 9.26659 3.39297 11.8499 3.39297 11.8499C4.55964 13.3583 6.29297 13.2499 6.29297 13.2499L6.88464 12.4999C5.84297 12.2749 5.18464 11.3499 5.18464 11.3499C5.18464 11.3499 6.7513 12.4166 9.0013 12.4166C11.2513 12.4166 12.818 11.3499 12.818 11.3499C12.818 11.3499 12.1596 12.2749 11.118 12.4999L11.7096 13.2499C11.7096 13.2499 13.443 13.3583 14.6096 11.8499C14.6096 11.8499 14.7013 9.26659 13.268 6.27492C13.268 6.27492 11.993 5.29992 10.5846 5.27492L10.443 5.41658C10.443 5.41658 11.943 5.85825 12.8013 6.62492C12.8013 6.62492 11.2346 5.66659 9.0013 5.66659ZM7.2763 8.82492C7.81797 8.82492 8.25964 9.29992 8.2513 9.88325C8.2513 10.4583 7.81797 10.9416 7.2763 10.9416C6.74297 10.9416 6.30964 10.4583 6.30964 9.88325C6.30964 9.29992 6.73464 8.82492 7.2763 8.82492ZM10.7513 8.82492C11.293 8.82492 11.7263 9.29992 11.7263 9.88325C11.7263 10.4583 11.293 10.9416 10.7513 10.9416C10.218 10.9416 9.78463 10.4583 9.78463 9.88325C9.78463 9.29992 10.2096 8.82492 10.7513 8.82492Z" fill="#030535"/>
</svg>
