<svg width="18" height="18" viewBox="0 0 18 18" fill="none" xmlns="http://www.w3.org/2000/svg">
<path d="M11.0846 11.8417C11.1513 11.9167 11.1513 12.0751 11.0846 12.1667C10.4763 12.7501 9.34297 12.8001 9.0013 12.8001C8.6763 12.8001 7.54297 12.7501 6.9513 12.1667C6.86797 12.0751 6.86797 11.9167 6.9513 11.8417C7.04297 11.7584 7.18464 11.7584 7.26797 11.8417C7.6513 12.2251 8.44297 12.3334 9.0013 12.3334C9.5763 12.3334 10.3846 12.2251 10.7513 11.8417C10.843 11.7584 10.9846 11.7584 11.0846 11.8417ZM7.95964 9.86675C7.95964 9.39175 7.56797 9.00008 7.09297 9.00008C6.61797 9.00008 6.2263 9.39175 6.2263 9.86675C6.2263 10.3417 6.61797 10.7417 7.09297 10.7334C7.56797 10.7334 7.95964 10.3417 7.95964 9.86675ZM10.9096 9.00008C10.4346 9.00008 10.043 9.41675 10.043 9.87508C10.043 10.3334 10.4346 10.7417 10.9096 10.7417C11.3846 10.7417 11.7763 10.3417 11.7763 9.87508C11.7763 9.41675 11.3846 9.00008 10.9096 9.00008ZM17.3346 9.00008C17.3346 13.5834 13.5846 17.3334 9.0013 17.3334C4.41797 17.3334 0.667969 13.5834 0.667969 9.00008C0.667969 4.41675 4.41797 0.666748 9.0013 0.666748C13.5846 0.666748 17.3346 4.41675 17.3346 9.00008ZM14.5596 9.00008C14.5596 8.32508 14.0013 7.78341 13.3513 7.78341C13.018 7.78341 12.718 7.91675 12.5013 8.12508C11.668 7.52508 10.5263 7.14175 9.2513 7.09175L9.80964 4.48341L11.618 4.87508C11.6346 5.33342 12.018 5.70008 12.4846 5.70008C12.9596 5.70008 13.3513 5.30841 13.3513 4.83341C13.3513 4.35841 12.9596 3.96675 12.4846 3.96675C12.143 3.96675 11.843 4.16675 11.7096 4.45841L9.68464 4.02508C9.6263 4.00008 9.56797 4.02508 9.5263 4.05841C9.4763 4.09175 9.4513 4.14175 9.44297 4.20008L8.8263 7.10008C7.53464 7.14175 6.36797 7.52508 5.51797 8.13341C5.3013 7.92508 5.0013 7.80008 4.6763 7.80008C4.0013 7.80008 3.45964 8.34175 3.45964 9.00008C3.45964 9.50841 3.75964 9.92508 4.1763 10.1167C4.15964 10.2501 4.1513 10.3501 4.1513 10.4834C4.1513 12.3334 6.3263 13.8751 9.0013 13.8751C11.693 13.8751 13.8763 12.3584 13.8763 10.4834C13.8763 10.3667 13.868 10.2501 13.843 10.1167C14.2596 9.92508 14.5596 9.50008 14.5596 9.00008Z" fill="#030535"/>
</svg>
